<svg xmlns="http://www.w3.org/2000/svg" version="1.1" viewBox="0 0 500 500" height="18" width="18">
<g stroke-width="2.0" fill="none" stroke-linecap="butt">
<path stroke="#8c969b" vector-effect="non-scaling-stroke" d="
  M 500.00 394.31
  Q 485.44 373.41 470.80 352.56
  Q 467.96 348.52 466.20 346.87
  Q 463.51 344.34 460.16 342.62
  Q 447.28 336.05 432.75 336.04
  Q 411.88 336.03 391.00 335.96"></path>
<path stroke="#878c8f" vector-effect="non-scaling-stroke" d="
  M 391.00 335.96
  L 392.54 332.25"></path>
<path stroke="#8c969b" vector-effect="non-scaling-stroke" d="
  M 392.54 332.25
  Q 410.80 332.41 429.05 332.11
  Q 436.54 331.99 440.76 330.54
  Q 453.21 326.28 457.10 313.88
  Q 458.50 309.42 458.50 300.47
  Q 458.50 191.74 458.50 83.00
  Q 458.50 73.33 451.50 65.71"></path>
<path stroke="#878c8f" vector-effect="non-scaling-stroke" d="
  M 451.50 65.71
  Q 446.78 60.57 440.51 58.51
  Q 436.70 57.26 427.84 57.22
  Q 369.58 56.99 243.00 57.00
  Q 123.20 57.01 70.86 57.23
  Q 63.79 57.25 59.81 58.59
  Q 48.75 62.28 43.97 72.97
  Q 42.17 77.00 41.93 82.83
  Q 41.75 87.13 41.75 93.00
  Q 41.75 196.63 41.80 300.25
  Q 41.80 308.08 42.25 310.50
  Q 44.16 320.81 52.50 327.04"></path>
<path stroke="#8c969b" vector-effect="non-scaling-stroke" d="
  M 52.50 327.04
  Q 60.29 332.25 69.75 332.25
  Q 88.73 332.25 107.71 332.25"></path>
<path stroke="#878c8f" vector-effect="non-scaling-stroke" d="
  M 107.71 332.25
  L 109.50 335.96"></path>
<path stroke="#8c969b" vector-effect="non-scaling-stroke" d="
  M 109.50 335.96
  Q 88.13 336.03 66.75 336.00
  Q 53.24 335.98 40.77 342.31
  Q 36.94 344.26 34.72 346.36
  Q 32.27 348.67 30.00 352.00
  Q 25.33 358.84 0.00 394.69"></path>
<path stroke="#14232b" vector-effect="non-scaling-stroke" d="
  M 451.50 65.71
  Q 450.87 66.88 450.44 66.06
  Q 444.20 63.25 437.75 63.25
  Q 264.84 63.25 91.93 63.25
  Q 91.87 63.25 81.57 63.17
  Q 71.81 63.09 69.25 63.75
  Q 54.10 67.64 49.57 81.31
  Q 48.25 85.29 48.25 92.35
  Q 48.25 126.17 48.26 160.00
  Q 48.26 160.71 49.00 160.54"></path>
<path stroke="#070d10" vector-effect="non-scaling-stroke" d="
  M 49.00 160.54
  Q 44.75 160.26 45.55 163.57
  C 45.63 163.92 45.85 164.19 46.13 164.28
  L 48.25 164.96"></path>
<path stroke="#14232b" vector-effect="non-scaling-stroke" d="
  M 48.25 164.96
  Q 48.25 230.48 48.02 296.00
  Q 47.96 313.38 48.50 316.50
  Q 49.39 321.63 52.59 325.67
  Q 53.34 326.62 52.50 327.04"></path>
<path stroke="#14232b" vector-effect="non-scaling-stroke" d="
  M 392.54 332.25
  Q 390.88 326.80 385.56 326.69
  Q 366.34 326.30 317.75 326.50
  Q 310.73 326.53 308.50 332.21"></path>
<path stroke="#8c969b" vector-effect="non-scaling-stroke" d="
  M 308.50 332.21
  L 192.00 332.29"></path>
<path stroke="#14232b" vector-effect="non-scaling-stroke" d="
  M 192.00 332.29
  Q 189.87 327.59 185.48 326.65
  Q 184.80 326.50 177.50 326.50
  Q 146.63 326.50 115.75 326.50
  Q 109.94 326.50 107.71 332.25"></path>
<path stroke="#0d161c" vector-effect="non-scaling-stroke" d="
  M 48.25 164.96
  Q 56.15 166.56 58.54 176.84
  Q 58.84 178.12 58.54 179.39
  Q 58.46 179.72 59.50 180.21"></path>
<path stroke="#336975" vector-effect="non-scaling-stroke" d="
  M 59.50 180.21
  Q 58.90 190.10 59.46 200.00"></path>
<path stroke="#0d161c" vector-effect="non-scaling-stroke" d="
  M 59.46 200.00
  Q 58.42 205.64 59.71 211.25"></path>
<path stroke="#3b7b88" vector-effect="non-scaling-stroke" d="
  M 59.71 211.25
  Q 58.87 211.20 59.02 211.63
  Q 59.25 212.32 59.25 212.43
  L 59.25 305.44
  C 59.25 305.75 59.50 306.00 59.81 306.00
  L 440.56 306.00
  C 440.94 306.00 441.25 305.69 441.25 305.31
  L 441.25 88.27
  C 441.25 87.98 441.02 87.75 440.73 87.75
  L 59.81 87.81
  C 59.53 87.81 59.31 88.04 59.31 88.32
  L 59.25 145.29"></path>
<path stroke="#0d161c" vector-effect="non-scaling-stroke" d="
  M 59.25 145.29
  Q 58.62 146.39 58.50 148.25
  Q 57.89 157.59 49.00 160.54"></path>
<path stroke="#767f85" vector-effect="non-scaling-stroke" d="
  M 256.41 75.51
  C 256.41 72.09 253.64 69.32 250.22 69.32
  C 246.80 69.32 244.03 72.09 244.03 75.51
  C 244.03 78.93 246.80 81.70 250.22 81.70
  C 253.64 81.70 256.41 78.93 256.41 75.51"></path>
<path stroke="#c7c6c6" vector-effect="non-scaling-stroke" d="
  M 253.41 75.42
  C 253.41 73.67 252.00 72.26 250.25 72.26
  C 248.50 72.26 247.09 73.67 247.09 75.42
  C 247.09 77.17 248.50 78.58 250.25 78.58
  C 252.00 78.58 253.41 77.17 253.41 75.42"></path>
<path stroke="#2e656d" vector-effect="non-scaling-stroke" d="
  M 59.71 211.25
  Q 60.71 217.60 63.79 223.25"></path>
<path stroke="#54b7c6" vector-effect="non-scaling-stroke" d="
  M 63.79 223.25
  Q 63.93 224.00 63.55 224.22
  C 63.29 224.37 63.14 224.61 63.18 224.80
  Q 63.55 226.51 63.44 228.24
  Q 63.25 231.19 63.25 231.27
  Q 63.25 249.53 63.25 268.14
  C 63.25 268.70 63.84 269.08 64.37 268.86
  L 86.75 259.46"></path>
<path stroke="#2e656d" vector-effect="non-scaling-stroke" d="
  M 86.75 259.46
  Q 112.10 291.00 151.51 291.38
  Q 161.87 291.49 171.33 289.23
  Q 182.73 286.50 192.19 280.94
  Q 218.94 265.19 229.43 235.96
  Q 229.63 235.40 230.08 235.00
  Q 240.51 225.82 243.79 212.75"></path>
<path stroke="#54b7c6" vector-effect="non-scaling-stroke" d="
  M 243.79 212.75
  Q 244.72 213.17 245.74 212.97
  Q 256.21 210.90 266.75 209.29"></path>
<path stroke="#a3656d" vector-effect="non-scaling-stroke" d="
  M 266.75 209.29
  Q 250.96 236.56 234.75 263.58
  Q 232.07 268.05 231.89 270.45
  Q 231.54 274.95 235.89 277.68
  C 236.16 277.85 236.48 277.94 236.82 277.94
  Q 328.97 278.04 421.12 278.00
  Q 424.56 278.00 426.59 276.78
  Q 432.89 273.01 428.21 265.30
  Q 408.19 232.36 388.46 199.25"></path>
<path stroke="#54b7c6" vector-effect="non-scaling-stroke" d="
  M 388.46 199.25
  Q 389.47 198.82 392.50 198.75
  Q 413.88 198.26 436.42 198.78
  C 436.74 198.79 437.00 198.53 437.00 198.21
  L 436.94 91.80
  C 436.94 91.53 436.72 91.31 436.44 91.31
  L 64.19 91.25
  C 63.62 91.25 63.18 91.75 63.26 92.32
  Q 63.66 95.23 63.58 98.25
  Q 62.98 119.12 63.39 140.00
  Q 63.40 140.30 63.21 144.35
  Q 63.10 146.85 63.75 148.75
  Q 64.38 150.61 62.79 151.25"></path>
<path stroke="#2e656d" vector-effect="non-scaling-stroke" d="
  M 62.79 151.25
  L 62.07 146.49
  C 62.01 146.12 61.86 145.82 61.65 145.64
  Q 60.70 144.84 59.25 145.29"></path>
<path stroke="#9b535a" vector-effect="non-scaling-stroke" d="
  M 388.46 199.25
  Q 364.27 159.41 340.45 119.36
  Q 338.23 115.63 336.44 114.56
  Q 328.91 110.10 322.81 116.06
  Q 321.37 117.47 319.56 120.56
  Q 299.42 154.98 266.75 209.29"></path>
<path stroke="#26535a" vector-effect="non-scaling-stroke" d="
  M 243.79 212.75
  Q 244.90 207.04 244.48 201.03
  Q 244.22 197.23 240.70 197.61
  L 233.99 198.33
  C 233.40 198.39 232.87 198.00 232.78 197.43
  Q 229.66 177.94 218.67 162.37
  Q 213.06 154.42 205.20 147.66
  Q 179.67 125.69 145.44 128.07
  Q 135.25 128.78 125.87 131.93
  Q 97.47 141.45 81.56 167.31
  Q 73.41 180.57 70.64 197.57
  C 70.59 197.86 70.35 198.07 70.06 198.08
  Q 67.09 198.14 63.25 197.50
  Q 60.18 196.99 59.46 200.00"></path>
<path stroke="#26535a" vector-effect="non-scaling-stroke" d="
  M 59.50 180.21
  Q 62.16 180.73 62.25 178.00
  Q 62.57 168.65 70.94 165.23
  Q 71.57 164.98 73.64 164.69
  Q 76.39 164.30 75.17 161.75
  C 75.04 161.48 74.77 161.29 74.45 161.24
  Q 65.51 159.90 62.79 151.25"></path>
<path stroke="#f58080" vector-effect="non-scaling-stroke" d="
  M 262.70 257.65
  Q 262.38 258.19 263.01 258.19
  L 399.32 257.75
  Q 399.84 257.75 399.58 257.30
  L 330.84 141.48
  C 330.68 141.22 330.31 141.22 330.16 141.48
  L 262.70 257.65"></path>
<path stroke="#26535a" vector-effect="non-scaling-stroke" d="
  M 86.75 259.46
  Q 78.61 248.76 74.22 236.15
  Q 73.96 235.40 73.37 234.88
  Q 67.13 229.32 63.79 223.25"></path>
<path stroke="#7e5b1d" vector-effect="non-scaling-stroke" d="
  M 204.81 151.94
  Q 184.24 132.85 156.24 131.27
  Q 146.13 130.70 136.37 132.70
  Q 115.87 136.89 100.20 150.57
  Q 92.51 157.28 86.98 165.49
  Q 77.24 179.91 74.20 197.96
  C 74.13 198.40 74.44 198.82 74.88 198.87
  Q 105.52 202.64 136.48 206.86
  Q 144.48 207.95 149.58 208.08
  Q 157.16 208.28 162.75 207.50
  Q 195.43 202.94 228.70 198.87
  C 229.16 198.82 229.48 198.39 229.41 197.93
  Q 225.19 170.85 204.81 151.94"></path>
<path stroke="#7e5b1d" vector-effect="non-scaling-stroke" d="
  M 129.76 237.94
  Q 121.24 243.26 110.25 244.25
  Q 93.95 245.71 79.25 238.75
  Q 78.81 238.54 79.00 239.00
  Q 84.17 251.50 93.22 261.55
  Q 111.04 281.34 136.36 286.55
  Q 146.18 288.57 156.24 287.98
  Q 181.91 286.48 202.06 269.81
  Q 217.00 257.46 224.50 239.02
  Q 224.69 238.56 224.24 238.77
  Q 209.23 245.75 193.34 244.23
  Q 182.39 243.19 174.42 238.37
  Q 161.18 230.38 157.52 213.94
  C 157.40 213.39 156.91 213.00 156.34 213.00
  L 147.12 213.00
  C 146.68 213.00 146.29 213.30 146.20 213.73
  Q 144.48 221.27 140.30 227.61
  Q 136.09 233.98 129.76 237.94"></path>
<path stroke="#808080" vector-effect="non-scaling-stroke" d="
  M 111.0738 216.8494
  C 111.52 216.10 111.28 215.13 110.5294 214.6823
  L 110.3235 214.5590
  C 109.57 214.11 108.60 214.35 108.1563 215.1034
  L 100.9462 227.1506
  C 100.50 227.90 100.74 228.87 101.4906 229.3177
  L 101.6965 229.4410
  C 102.45 229.89 103.42 229.65 103.8637 228.8966
  L 111.0738 216.8494"></path>
<path stroke="#808080" vector-effect="non-scaling-stroke" d="
  M 217.1971 216.7567
  C 217.60 216.08 217.38 215.20 216.7011 214.7962
  L 216.2544 214.5299
  C 215.58 214.13 214.70 214.35 214.2939 215.0260
  L 207.0229 227.2233
  C 206.62 227.90 206.84 228.78 207.5189 229.1838
  L 207.9656 229.4501
  C 208.64 229.85 209.52 229.63 209.9261 228.9540
  L 217.1971 216.7567"></path>
<path stroke="#808080" vector-effect="non-scaling-stroke" d="
  M 99.2976 217.2824
  C 99.70 216.61 99.48 215.74 98.8050 215.3356
  L 98.3412 215.0591
  C 97.67 214.66 96.80 214.88 96.3943 215.5517
  L 89.0824 227.8176
  C 88.68 228.49 88.90 229.36 89.5750 229.7644
  L 90.0388 230.0409
  C 90.71 230.44 91.58 230.22 91.9857 229.5483
  L 99.2976 217.2824"></path>
<path stroke="#808080" vector-effect="non-scaling-stroke" d="
  M 205.3734 217.3083
  C 205.83 216.54 205.58 215.55 204.8153 215.0863
  L 204.7295 215.0349
  C 203.96 214.58 202.97 214.83 202.5075 215.5930
  L 195.2666 227.6917
  C 194.81 228.46 195.06 229.45 195.8247 229.9137
  L 195.9105 229.9651
  C 196.68 230.42 197.67 230.17 198.1325 229.4070
  L 205.3734 217.3083"></path>
<path stroke="#7e5b1d" vector-effect="non-scaling-stroke" d="
  M 138.9776 197.4724
  C 139.23 196.72 138.83 195.91 138.0847 195.6579
  L 112.9039 187.0856
  C 112.16 186.83 111.34 187.23 111.0893 187.9785
  L 110.9024 188.5276
  C 110.65 189.28 111.05 190.09 111.7953 190.3421
  L 136.9761 198.9144
  C 137.72 199.17 138.54 198.77 138.7907 198.0215
  L 138.9776 197.4724"></path>
<path stroke="#7e5b1d" vector-effect="non-scaling-stroke" d="
  M 192.5583 188.1433
  C 192.26 187.29 191.33 186.83 190.4755 187.1229
  L 165.6502 195.6225
  C 164.79 195.92 164.34 196.85 164.6299 197.7053
  L 164.6817 197.8567
  C 164.98 198.71 165.91 199.17 166.7645 198.8771
  L 191.5898 190.3775
  C 192.45 190.08 192.90 189.15 192.6101 188.2947
  L 192.5583 188.1433"></path>
<path stroke="#808080" vector-effect="non-scaling-stroke" d="
  M 322.60 168.37
  Q 321.12 170.38 321.25 173.50
  Q 322.27 198.32 324.01 216.84
  Q 324.43 221.24 325.27 222.89
  Q 327.00 226.24 331.08 226.36
  Q 333.11 226.41 334.74 225.40
  Q 336.49 224.32 337.50 222.58
  Q 338.44 220.95 338.68 217.22
  Q 339.70 201.08 340.47 184.91
  Q 341.00 173.70 340.81 172.60
  Q 339.38 164.13 328.01 165.31
  Q 324.60 165.66 322.60 168.37"></path>
<path stroke="#808080" vector-effect="non-scaling-stroke" d="
  M 341.3533 240.6796
  C 340.80 235.68 336.17 232.09 331.0203 232.6550
  C 325.87 233.22 322.13 237.74 322.6867 242.7404
  C 323.24 247.74 327.87 251.33 333.0197 250.7650
  C 338.17 250.20 341.91 245.68 341.3533 240.6796"></path>
<path stroke="#808080" vector-effect="non-scaling-stroke" d="
  M 66.95 162.41
  Q 62.78 159.35 61.00 155.80
  Q 60.48 154.78 59.95 155.80
  Q 57.76 159.97 53.95 162.28
  C 53.72 162.42 53.70 162.75 53.92 162.91
  Q 57.88 165.94 60.24 170.00
  C 60.36 170.20 60.64 170.19 60.76 169.99
  Q 63.10 165.93 66.95 163.02
  C 67.15 162.87 67.15 162.56 66.95 162.41"></path>
<path stroke="#7e5b1d" vector-effect="non-scaling-stroke" d="
  M 153.4968 227.0230
  C 153.50 226.10 152.75 225.35 151.8297 225.3501
  L 151.7097 225.3499
  C 150.79 225.35 150.04 226.09 150.0368 227.0170
  L 150.0232 234.8370
  C 150.02 235.76 150.77 236.51 151.6903 236.5099
  L 151.8103 236.5101
  C 152.73 236.51 153.48 235.77 153.4832 234.8430
  L 153.4968 227.0230"></path>
<path stroke="#7e5b1d" vector-effect="non-scaling-stroke" d="
  M 153.82 250.06
  Q 152.32 249.69 150.80 249.40
  C 150.48 249.34 150.16 249.44 149.95 249.65
  Q 147.50 252.04 151.22 253.11
  Q 165.49 257.22 168.40 243.50
  C 168.47 243.16 168.43 242.83 168.28 242.55
  Q 167.03 240.22 165.69 241.85
  Q 165.18 242.46 164.87 243.94
  Q 163.51 250.50 156.85 250.51
  Q 155.72 250.52 153.82 250.06"></path>
<path stroke="#878c8f" vector-effect="non-scaling-stroke" d="
  M 192.00 332.29
  Q 191.38 334.40 190.75 335.00
  Q 189.71 335.99 191.25 336.04"></path>
<path stroke="#14232b" vector-effect="non-scaling-stroke" d="
  M 191.25 336.04
  Q 185.50 338.25 184.00 338.25
  Q 151.00 338.25 118.00 338.28
  Q 113.39 338.29 109.50 335.96"></path>
<path stroke="#14232b" vector-effect="non-scaling-stroke" d="
  M 391.00 335.96
  Q 386.95 338.25 385.50 338.25
  Q 352.00 338.25 318.50 338.26
  Q 313.73 338.26 310.04 335.50"></path>
<path stroke="#878c8f" vector-effect="non-scaling-stroke" d="
  M 310.04 335.50
  Q 308.91 334.03 308.50 332.21"></path>
<path stroke="#8c969b" vector-effect="non-scaling-stroke" d="
  M 310.04 335.50
  Q 310.08 336.00 309.50 336.00
  Q 279.71 335.93 191.25 336.04"></path>
<path stroke="#6a7379" vector-effect="non-scaling-stroke" d="
  M 500.00 395.31
  Q 250.63 395.64 1.25 395.50
  Q 0.39 396.03 0.00 395.19"></path>
<path stroke="#223c4b" vector-effect="non-scaling-stroke" d="
  M 51.69 352.89
  Q 59.68 354.09 67.75 353.28
  Q 70.80 352.97 69.67 348.78
  C 69.52 348.23 69.05 347.82 68.49 347.75
  Q 60.15 346.64 51.81 347.75
  C 51.47 347.80 51.16 347.94 50.94 348.15
  Q 48.79 350.25 50.83 352.45
  C 51.04 352.68 51.35 352.84 51.69 352.89"></path>
<path stroke="#223c4b" vector-effect="non-scaling-stroke" d="
  M 101.7646 349.7598
  C 101.77 348.45 100.72 347.38 99.4112 347.3733
  L 84.1715 347.2669
  C 82.86 347.26 81.79 348.31 81.7851 349.6203
  L 81.7754 351.0002
  C 81.77 352.31 82.82 353.38 84.1288 353.3867
  L 99.3685 353.4931
  C 100.68 353.50 101.75 352.45 101.7549 351.1397
  L 101.7646 349.7598"></path>
<path stroke="#223c4b" vector-effect="non-scaling-stroke" d="
  M 133.5208 349.9076
  C 133.52 348.48 132.37 347.32 130.9353 347.3131
  L 115.9353 347.2869
  C 114.50 347.28 113.34 348.44 113.3408 349.8724
  L 113.3392 350.7924
  C 113.34 352.22 114.49 353.38 115.9247 353.3869
  L 130.9247 353.4131
  C 132.36 353.42 133.52 352.26 133.5192 350.8276
  L 133.5208 349.9076"></path>
<path stroke="#223c4b" vector-effect="non-scaling-stroke" d="
  M 165.2315 349.9352
  C 165.24 348.49 164.07 347.32 162.6306 347.3161
  L 147.6707 347.2639
  C 146.23 347.26 145.06 348.42 145.0516 349.8648
  L 145.0485 350.7648
  C 145.04 352.21 146.21 353.38 147.6494 353.3839
  L 162.6093 353.4361
  C 164.05 353.44 165.22 352.28 165.2284 350.8352
  L 165.2315 349.9352"></path>
<path stroke="#223c4b" vector-effect="non-scaling-stroke" d="
  M 196.8933 349.7426
  C 196.90 348.43 195.84 347.36 194.5258 347.3501
  L 179.2060 347.2699
  C 177.89 347.26 176.82 348.32 176.8136 349.6374
  L 176.8067 350.9574
  C 176.80 352.27 177.86 353.34 179.1742 353.3499
  L 194.4940 353.4301
  C 195.81 353.44 196.88 352.38 196.8864 351.0626
  L 196.8933 349.7426"></path>
<path stroke="#223c4b" vector-effect="non-scaling-stroke" d="
  M 228.68 349.98
  C 228.68 348.51 227.48 347.31 226.01 347.31
  L 211.15 347.31
  C 209.68 347.31 208.48 348.51 208.48 349.98
  L 208.48 350.76
  C 208.48 352.23 209.68 353.43 211.15 353.43
  L 226.01 353.43
  C 227.48 353.43 228.68 352.23 228.68 350.76
  L 228.68 349.98"></path>
<path stroke="#223c4b" vector-effect="non-scaling-stroke" d="
  M 260.47 350.15
  C 260.47 348.58 259.20 347.31 257.63 347.31
  L 242.85 347.31
  C 241.28 347.31 240.01 348.58 240.01 350.15
  L 240.01 350.61
  C 240.01 352.18 241.28 353.45 242.85 353.45
  L 257.63 353.45
  C 259.20 353.45 260.47 352.18 260.47 350.61
  L 260.47 350.15"></path>
<path stroke="#223c4b" vector-effect="non-scaling-stroke" d="
  M 273.19 352.88
  Q 280.98 353.95 290.07 353.13
  C 290.91 353.06 291.62 352.47 291.85 351.66
  Q 293.04 347.41 289.13 347.38
  Q 287.18 347.36 287.01 347.35
  Q 280.26 346.85 273.55 347.75
  C 273.21 347.80 272.91 347.93 272.70 348.14
  Q 270.71 350.11 272.38 352.42
  C 272.56 352.67 272.85 352.84 273.19 352.88"></path>
<path stroke="#223c4b" vector-effect="non-scaling-stroke" d="
  M 323.6808 349.9276
  C 323.68 348.49 322.52 347.32 321.0753 347.3131
  L 306.0954 347.2869
  C 304.65 347.28 303.48 348.45 303.4808 349.8924
  L 303.4792 350.8124
  C 303.48 352.25 304.64 353.42 306.0847 353.4269
  L 321.0646 353.4531
  C 322.51 353.46 323.68 352.29 323.6792 350.8476
  L 323.6808 349.9276"></path>
<path stroke="#223c4b" vector-effect="non-scaling-stroke" d="
  M 355.2893 349.9524
  C 355.29 348.48 354.09 347.28 352.6146 347.2870
  L 337.7347 347.3130
  C 336.26 347.32 335.07 348.51 335.0693 349.9876
  L 335.0707 350.7876
  C 335.07 352.26 336.27 353.46 337.7454 353.4530
  L 352.6253 353.4270
  C 354.10 353.42 355.29 352.23 355.2907 350.7524
  L 355.2893 349.9524"></path>
<path stroke="#223c4b" vector-effect="non-scaling-stroke" d="
  M 368.43 352.89
  Q 376.83 354.25 385.67 352.94
  C 386.12 352.87 386.49 352.56 386.63 352.13
  Q 388.01 347.88 384.49 347.58
  Q 377.74 346.98 370.98 347.38
  Q 368.76 347.51 367.70 348.26
  Q 365.58 349.77 367.62 352.42
  C 367.81 352.67 368.10 352.84 368.43 352.89"></path>
<path stroke="#223c4b" vector-effect="non-scaling-stroke" d="
  M 418.74 350.15
  C 418.74 348.58 417.47 347.31 415.90 347.31
  L 401.34 347.31
  C 399.77 347.31 398.50 348.58 398.50 350.15
  L 398.50 350.61
  C 398.50 352.18 399.77 353.45 401.34 353.45
  L 415.90 353.45
  C 417.47 353.45 418.74 352.18 418.74 350.61
  L 418.74 350.15"></path>
<path stroke="#223c4b" vector-effect="non-scaling-stroke" d="
  M 431.67 352.89
  Q 438.69 354.00 445.77 353.35
  Q 445.85 353.34 447.73 353.30
  Q 450.95 353.22 450.52 349.66
  C 450.40 348.70 449.65 347.93 448.69 347.81
  Q 440.03 346.66 431.81 347.75
  C 431.47 347.79 431.18 347.95 430.99 348.19
  Q 429.31 350.28 430.87 352.42
  C 431.06 352.67 431.34 352.84 431.67 352.89"></path>
<path stroke="#223c4b" vector-effect="non-scaling-stroke" d="
  M 57.41 359.12
  Q 49.69 357.87 41.49 358.66
  Q 35.93 359.19 38.33 364.00
  C 38.47 364.28 38.74 364.47 39.05 364.52
  Q 46.17 365.69 53.36 365.17
  Q 56.98 364.90 57.13 364.86
  Q 59.65 364.20 59.02 360.71
  C 58.88 359.89 58.23 359.26 57.41 359.12"></path>
<path stroke="#223c4b" vector-effect="non-scaling-stroke" d="
  M 72.66 364.48
  Q 74.18 364.92 77.50 365.00
  Q 86.35 365.23 88.50 365.17
  Q 94.59 365.03 92.15 359.76
  C 92.03 359.48 91.76 359.28 91.44 359.23
  Q 83.56 357.93 75.61 358.63
  Q 73.23 358.84 72.19 359.57
  Q 70.12 361.03 71.91 363.89
  C 72.09 364.18 72.36 364.39 72.66 364.48"></path>
<path stroke="#223c4b" vector-effect="non-scaling-stroke" d="
  M 106.78 364.65
  Q 113.74 365.74 121.28 365.09
  Q 121.39 365.08 123.23 365.05
  Q 126.95 364.99 126.25 360.55
  C 126.12 359.71 125.44 359.05 124.59 358.95
  Q 117.75 358.13 110.57 358.61
  Q 107.19 358.83 106.95 358.91
  Q 104.78 359.57 105.02 362.75
  C 105.09 363.72 105.82 364.50 106.78 364.65"></path>
<path stroke="#223c4b" vector-effect="non-scaling-stroke" d="
  M 140.04 364.58
  Q 149.30 366.01 157.83 364.81
  C 158.58 364.70 159.18 364.16 159.37 363.43
  Q 160.59 358.81 157.26 358.62
  Q 150.12 358.22 142.98 358.64
  Q 140.53 358.78 139.64 359.35
  Q 137.90 360.47 138.57 363.23
  C 138.75 363.93 139.32 364.46 140.04 364.58"></path>
<path stroke="#223c4b" vector-effect="non-scaling-stroke" d="
  M 173.37 364.55
  Q 181.22 365.71 189.07 365.14
  Q 191.87 364.94 192.37 364.60
  Q 193.74 363.69 193.42 360.69
  C 193.33 359.87 192.70 359.20 191.88 359.06
  Q 185.73 358.00 178.67 358.55
  Q 174.56 358.86 174.34 358.91
  Q 170.89 359.70 172.77 364.09
  C 172.88 364.34 173.10 364.51 173.37 364.55"></path>
<path stroke="#223c4b" vector-effect="non-scaling-stroke" d="
  M 207.08 364.54
  Q 214.70 365.73 222.27 365.09
  Q 222.38 365.08 224.23 365.02
  Q 228.39 364.89 227.16 360.53
  C 226.89 359.56 226.04 358.87 225.04 358.79
  Q 216.87 358.16 209.24 358.65
  Q 204.76 358.94 206.13 363.71
  C 206.26 364.15 206.63 364.47 207.08 364.54"></path>
<path stroke="#223c4b" vector-effect="non-scaling-stroke" d="
  M 258.84 359.04
  Q 252.48 358.17 243.50 358.75
  Q 237.80 359.12 240.09 363.99
  C 240.22 364.27 240.49 364.47 240.80 364.52
  Q 249.88 365.94 259.00 364.75
  Q 260.04 364.62 260.75 362.00
  Q 261.12 360.65 260.55 359.84
  Q 260.12 359.22 258.84 359.04"></path>
<path stroke="#223c4b" vector-effect="non-scaling-stroke" d="
  M 274.68 364.63
  Q 282.06 365.62 289.48 365.14
  Q 292.43 364.94 292.99 364.71
  Q 294.91 363.89 294.47 360.79
  C 294.33 359.81 293.55 359.04 292.57 358.92
  Q 285.14 357.99 274.97 358.94
  C 274.24 359.01 273.61 359.47 273.31 360.14
  Q 272.42 362.18 273.88 364.17
  C 274.06 364.42 274.35 364.59 274.68 364.63"></path>
<path stroke="#223c4b" vector-effect="non-scaling-stroke" d="
  M 308.44 364.64
  Q 317.44 365.93 326.45 364.75
  C 326.79 364.70 327.08 364.56 327.29 364.34
  Q 329.24 362.27 327.71 359.73
  C 327.55 359.46 327.27 359.27 326.95 359.21
  Q 323.52 358.51 316.50 358.50
  Q 310.87 358.49 307.79 359.41
  C 307.47 359.51 307.21 359.72 307.08 360.00
  Q 305.88 362.39 307.58 364.21
  C 307.79 364.44 308.09 364.59 308.44 364.64"></path>
<path stroke="#223c4b" vector-effect="non-scaling-stroke" d="
  M 342.18 364.64
  Q 351.29 365.98 360.09 364.74
  C 360.79 364.64 361.35 364.11 361.49 363.43
  Q 362.46 358.96 359.25 358.72
  Q 352.09 358.19 344.93 358.67
  Q 342.52 358.83 341.35 359.57
  Q 338.79 361.18 341.35 364.18
  C 341.56 364.43 341.85 364.59 342.18 364.64"></path>
<path stroke="#223c4b" vector-effect="non-scaling-stroke" d="
  M 375.42 364.41
  Q 382.11 365.72 388.90 365.16
  Q 389.02 365.15 392.12 365.06
  Q 397.17 364.92 395.01 359.89
  C 394.76 359.30 394.20 358.91 393.57 358.85
  Q 385.82 358.16 378.37 358.67
  Q 376.01 358.83 374.95 359.61
  Q 372.91 361.11 374.66 363.90
  C 374.83 364.16 375.10 364.35 375.42 364.41"></path>
<path stroke="#223c4b" vector-effect="non-scaling-stroke" d="
  M 409.23 364.57
  Q 417.31 365.75 425.48 364.82
  Q 431.30 364.15 428.22 359.47
  C 428.05 359.21 427.77 359.04 427.45 359.00
  Q 420.30 358.09 413.12 358.60
  Q 409.88 358.82 409.39 358.98
  Q 406.95 359.76 407.71 363.15
  C 407.87 363.89 408.48 364.46 409.23 364.57"></path>
<path stroke="#223c4b" vector-effect="non-scaling-stroke" d="
  M 442.93 364.63
  Q 450.76 365.64 458.62 365.08
  Q 460.95 364.92 462.01 364.02
  Q 463.91 362.39 461.99 359.71
  C 461.80 359.45 461.52 359.27 461.20 359.21
  Q 457.64 358.53 450.25 358.50
  Q 445.11 358.48 442.29 359.40
  C 441.97 359.50 441.72 359.72 441.60 360.01
  Q 440.57 362.38 442.10 364.19
  C 442.29 364.43 442.59 364.59 442.93 364.63"></path>
<path stroke="#223c4b" vector-effect="non-scaling-stroke" d="
  M 25.57 377.08
  Q 34.73 378.54 45.08 377.18
  C 45.69 377.10 46.19 376.68 46.38 376.11
  Q 47.77 371.93 44.25 371.25
  Q 39.98 370.42 28.16 371.14
  Q 25.72 371.29 24.97 371.86
  Q 23.53 372.94 24.08 375.66
  C 24.23 376.40 24.83 376.97 25.57 377.08"></path>
<path stroke="#223c4b" vector-effect="non-scaling-stroke" d="
  M 61.17 376.97
  Q 63.81 377.75 68.25 377.75
  Q 75.24 377.75 79.17 377.39
  Q 81.30 377.19 82.26 376.01
  Q 83.86 374.04 81.56 371.89
  C 81.33 371.68 81.03 371.54 80.69 371.50
  Q 71.93 370.40 63.17 371.31
  Q 61.07 371.53 60.20 372.54
  Q 58.80 374.17 60.38 376.41
  C 60.57 376.68 60.85 376.87 61.17 376.97"></path>
<path stroke="#223c4b" vector-effect="non-scaling-stroke" d="
  M 98.58 377.27
  Q 107.27 378.50 116.00 377.27
  Q 119.30 376.81 118.38 373.07
  C 118.16 372.19 117.42 371.55 116.52 371.45
  Q 107.54 370.44 97.75 371.34
  Q 96.02 371.50 95.53 373.17
  Q 94.95 375.16 96.02 376.28
  Q 96.71 377.01 98.58 377.27"></path>
<path stroke="#223c4b" vector-effect="non-scaling-stroke" d="
  M 134.07 377.23
  Q 136.87 377.79 141.00 377.75
  Q 148.94 377.68 152.44 377.25
  C 152.77 377.21 153.07 377.06 153.28 376.83
  Q 155.17 374.74 153.70 372.23
  C 153.55 371.96 153.27 371.78 152.95 371.72
  Q 142.98 370.00 133.00 371.66
  C 132.66 371.72 132.35 371.87 132.14 372.10
  Q 130.55 373.78 131.41 375.49
  Q 132.08 376.83 134.07 377.23"></path>
<path stroke="#223c4b" vector-effect="non-scaling-stroke" d="
  M 169.99 377.31
  Q 172.03 377.74 174.75 377.75
  Q 182.72 377.79 187.48 377.35
  Q 188.78 377.23 189.32 376.63
  Q 190.05 375.81 189.85 374.48
  Q 189.78 373.99 189.87 373.51
  Q 190.21 371.71 188.75 371.50
  Q 181.33 370.41 170.80 371.19
  Q 168.98 371.33 168.04 372.08
  Q 166.38 373.39 167.17 375.25
  Q 167.86 376.87 169.99 377.31"></path>
<path stroke="#223c4b" vector-effect="non-scaling-stroke" d="
  M 205.94 377.27
  Q 214.96 378.43 224.00 377.25
  C 224.82 377.14 225.51 376.56 225.75 375.76
  Q 227.01 371.56 222.75 371.25
  Q 214.03 370.60 205.17 371.32
  C 204.38 371.39 203.69 371.90 203.40 372.64
  Q 202.55 374.82 203.32 376.07
  Q 203.90 377.01 205.94 377.27"></path>
<path stroke="#223c4b" vector-effect="non-scaling-stroke" d="
  M 260.07 371.62
  Q 251.27 370.47 240.94 371.39
  C 239.98 371.48 239.16 372.10 238.81 373.00
  Q 238.09 374.83 239.20 376.20
  Q 239.97 377.16 241.79 377.38
  Q 250.92 378.45 260.01 377.08
  C 260.35 377.03 260.64 376.87 260.84 376.63
  Q 262.82 374.32 260.90 372.06
  C 260.70 371.82 260.40 371.67 260.07 371.62"></path>
<path stroke="#223c4b" vector-effect="non-scaling-stroke" d="
  M 276.16 376.96
  Q 278.36 377.57 282.75 377.75
  Q 289.27 378.01 295.01 377.34
  Q 297.26 377.07 297.47 374.82
  Q 297.78 371.54 294.94 371.32
  Q 287.01 370.69 279.08 371.13
  Q 276.68 371.27 275.56 371.94
  Q 273.11 373.40 275.37 376.41
  C 275.57 376.68 275.85 376.87 276.16 376.96"></path>
<path stroke="#223c4b" vector-effect="non-scaling-stroke" d="
  M 311.92 376.91
  Q 321.79 378.86 331.69 377.03
  C 332.03 376.97 332.32 376.80 332.51 376.56
  Q 334.26 374.36 332.57 372.14
  C 332.38 371.89 332.09 371.72 331.76 371.67
  Q 321.88 370.04 311.99 371.67
  C 311.65 371.72 311.36 371.87 311.15 372.10
  Q 309.16 374.23 311.09 376.45
  C 311.30 376.68 311.59 376.85 311.92 376.91"></path>
<path stroke="#223c4b" vector-effect="non-scaling-stroke" d="
  M 349.23 377.29
  Q 357.81 378.42 367.05 377.22
  Q 368.89 376.98 369.16 375.13
  Q 369.64 371.82 366.67 371.49
  Q 357.21 370.46 348.10 371.46
  C 347.52 371.52 347.03 371.90 346.82 372.45
  Q 345.93 374.76 346.57 376.02
  Q 347.07 377.00 349.23 377.29"></path>
<path stroke="#223c4b" vector-effect="non-scaling-stroke" d="
  M 383.43 376.91
  Q 393.42 378.87 403.45 377.03
  C 403.78 376.97 404.06 376.79 404.25 376.54
  Q 405.87 374.36 404.61 372.69
  Q 403.74 371.53 401.44 371.30
  Q 393.42 370.50 385.41 371.31
  Q 383.33 371.53 382.45 372.55
  Q 381.06 374.19 382.63 376.41
  C 382.81 376.67 383.10 376.85 383.43 376.91"></path>
<path stroke="#223c4b" vector-effect="non-scaling-stroke" d="
  M 419.17 376.91
  Q 429.07 378.83 439.00 377.09
  C 439.34 377.03 439.65 376.87 439.86 376.64
  Q 441.80 374.50 440.06 372.14
  C 439.88 371.89 439.59 371.72 439.25 371.67
  Q 430.12 370.26 420.95 371.35
  Q 418.93 371.59 418.14 372.71
  Q 416.96 374.39 418.39 376.42
  C 418.56 376.67 418.84 376.85 419.17 376.91"></path>
<path stroke="#223c4b" vector-effect="non-scaling-stroke" d="
  M 456.29 377.32
  Q 458.14 377.76 460.50 377.75
  Q 467.80 377.73 471.58 377.59
  Q 474.18 377.50 475.30 376.86
  Q 477.70 375.50 475.94 372.25
  C 475.79 371.97 475.52 371.78 475.20 371.72
  Q 465.23 370.00 455.25 371.66
  C 454.91 371.72 454.61 371.87 454.40 372.09
  Q 452.83 373.76 453.67 375.47
  Q 454.34 376.85 456.29 377.32"></path>
<path stroke="#223c4b" vector-effect="non-scaling-stroke" d="
  M 297.54 383.25
  Q 296.49 382.00 294.86 382.00
  Q 250.79 381.95 207.78 382.06
  Q 204.84 382.07 203.48 382.79
  Q 200.48 384.40 202.91 388.15
  C 203.08 388.41 203.36 388.60 203.68 388.66
  Q 208.03 389.46 216.25 389.50
  Q 254.68 389.68 293.11 389.27
  Q 295.81 389.24 297.22 388.42
  Q 300.34 386.59 297.54 383.25"></path>
<path stroke="#dddddd" vector-effect="non-scaling-stroke" d="
  M 500.00 404.06
  Q 498.47 408.20 495.25 411.21"></path>
<path stroke="#9a9999" vector-effect="non-scaling-stroke" d="
  M 495.25 411.21
  Q 389.88 410.97 284.50 411.25
  Q 233.34 411.38 29.50 411.74
  Q 19.41 411.76 10.01 408.23
  Q 2.91 405.57 0.47 398.54
  Q 0.35 398.21 0.32 398.57
  Q 0.27 399.06 0.00 399.44"></path>
<path stroke="#bcbbbb" vector-effect="non-scaling-stroke" d="
  M 495.25 411.21
  Q 489.87 415.66 484.00 416.25
  Q 479.49 416.70 467.75 416.69
  Q 245.00 416.50 22.25 416.33
  Q 17.29 416.33 15.06 415.94
  Q 3.41 413.89 0.00 402.69"></path>
</g>
<path fill="#ffffff" d="
  M 0.00 0.00
  Q 250.00 0.00 500.00 0.00
  Q 500.00 197.16 500.00 394.31
  Q 485.44 373.41 470.80 352.56
  Q 467.96 348.52 466.20 346.87
  Q 463.51 344.34 460.16 342.62
  Q 447.28 336.05 432.75 336.04
  Q 411.88 336.03 391.00 335.96
  L 392.54 332.25
  Q 410.80 332.41 429.05 332.11
  Q 436.54 331.99 440.76 330.54
  Q 453.21 326.28 457.10 313.88
  Q 458.50 309.42 458.50 300.47
  Q 458.50 191.74 458.50 83.00
  Q 458.50 73.33 451.50 65.71
  Q 446.78 60.57 440.51 58.51
  Q 436.70 57.26 427.84 57.22
  Q 369.58 56.99 243.00 57.00
  Q 123.20 57.01 70.86 57.23
  Q 63.79 57.25 59.81 58.59
  Q 48.75 62.28 43.97 72.97
  Q 42.17 77.00 41.93 82.83
  Q 41.75 87.13 41.75 93.00
  Q 41.75 196.63 41.80 300.25
  Q 41.80 308.08 42.25 310.50
  Q 44.16 320.81 52.50 327.04
  Q 60.29 332.25 69.75 332.25
  Q 88.73 332.25 107.71 332.25
  L 109.50 335.96
  Q 88.13 336.03 66.75 336.00
  Q 53.24 335.98 40.77 342.31
  Q 36.94 344.26 34.72 346.36
  Q 32.27 348.67 30.00 352.00
  Q 25.33 358.84 0.00 394.69
  Q 0.00 197.34 0.00 0.00
  Z"></path>
<path fill="#0e191f" d="
  M 451.50 65.71
  Q 450.87 66.88 450.44 66.06
  Q 444.20 63.25 437.75 63.25
  Q 264.84 63.25 91.93 63.25
  Q 91.87 63.25 81.57 63.17
  Q 71.81 63.09 69.25 63.75
  Q 54.10 67.64 49.57 81.31
  Q 48.25 85.29 48.25 92.35
  Q 48.25 126.17 48.26 160.00
  Q 48.26 160.71 49.00 160.54
  Q 44.75 160.26 45.55 163.57
  C 45.63 163.92 45.85 164.19 46.13 164.28
  L 48.25 164.96
  Q 48.25 230.48 48.02 296.00
  Q 47.96 313.38 48.50 316.50
  Q 49.39 321.63 52.59 325.67
  Q 53.34 326.62 52.50 327.04
  Q 44.16 320.81 42.25 310.50
  Q 41.80 308.08 41.80 300.25
  Q 41.75 196.63 41.75 93.00
  Q 41.75 87.13 41.93 82.83
  Q 42.17 77.00 43.97 72.97
  Q 48.75 62.28 59.81 58.59
  Q 63.79 57.25 70.86 57.23
  Q 123.20 57.01 243.00 57.00
  Q 369.58 56.99 427.84 57.22
  Q 436.70 57.26 440.51 58.51
  Q 446.78 60.57 451.50 65.71
  Z"></path>
<path fill="#192c37" d="
  M 451.50 65.71
  Q 458.50 73.33 458.50 83.00
  Q 458.50 191.74 458.50 300.47
  Q 458.50 309.42 457.10 313.88
  Q 453.21 326.28 440.76 330.54
  Q 436.54 331.99 429.05 332.11
  Q 410.80 332.41 392.54 332.25
  Q 390.88 326.80 385.56 326.69
  Q 366.34 326.30 317.75 326.50
  Q 310.73 326.53 308.50 332.21
  L 192.00 332.29
  Q 189.87 327.59 185.48 326.65
  Q 184.80 326.50 177.50 326.50
  Q 146.63 326.50 115.75 326.50
  Q 109.94 326.50 107.71 332.25
  Q 88.73 332.25 69.75 332.25
  Q 60.29 332.25 52.50 327.04
  Q 53.34 326.62 52.59 325.67
  Q 49.39 321.63 48.50 316.50
  Q 47.96 313.38 48.02 296.00
  Q 48.25 230.48 48.25 164.96
  Q 56.15 166.56 58.54 176.84
  Q 58.84 178.12 58.54 179.39
  Q 58.46 179.72 59.50 180.21
  Q 58.90 190.10 59.46 200.00
  Q 58.42 205.64 59.71 211.25
  Q 58.87 211.20 59.02 211.63
  Q 59.25 212.32 59.25 212.43
  L 59.25 305.44
  C 59.25 305.75 59.50 306.00 59.81 306.00
  L 440.56 306.00
  C 440.94 306.00 441.25 305.69 441.25 305.31
  L 441.25 88.27
  C 441.25 87.98 441.02 87.75 440.73 87.75
  L 59.81 87.81
  C 59.53 87.81 59.31 88.04 59.31 88.32
  L 59.25 145.29
  Q 58.62 146.39 58.50 148.25
  Q 57.89 157.59 49.00 160.54
  Q 48.26 160.71 48.26 160.00
  Q 48.25 126.17 48.25 92.35
  Q 48.25 85.29 49.57 81.31
  Q 54.10 67.64 69.25 63.75
  Q 71.81 63.09 81.57 63.17
  Q 91.87 63.25 91.93 63.25
  Q 264.84 63.25 437.75 63.25
  Q 444.20 63.25 450.44 66.06
  Q 450.87 66.88 451.50 65.71
  Z
  M 256.41 75.51
  C 256.41 72.09 253.64 69.32 250.22 69.32
  C 246.80 69.32 244.03 72.09 244.03 75.51
  C 244.03 78.93 246.80 81.70 250.22 81.70
  C 253.64 81.70 256.41 78.93 256.41 75.51
  Z"></path>
<path fill="#d3d2d2" d="
  M 256.41 75.51
  C 256.41 78.93 253.64 81.70 250.22 81.70
  C 246.80 81.70 244.03 78.93 244.03 75.51
  C 244.03 72.09 246.80 69.32 250.22 69.32
  C 253.64 69.32 256.41 72.09 256.41 75.51
  Z
  M 253.41 75.42
  C 253.41 73.67 252.00 72.26 250.25 72.26
  C 248.50 72.26 247.09 73.67 247.09 75.42
  C 247.09 77.17 248.50 78.58 250.25 78.58
  C 252.00 78.58 253.41 77.17 253.41 75.42
  Z"></path>
<circle fill="#bbbaba" cx="250.25" cy="75.42" r="3.16"></circle>
<path fill="#5cc9d9" d="
  M 59.71 211.25
  Q 60.71 217.60 63.79 223.25
  Q 63.93 224.00 63.55 224.22
  C 63.29 224.37 63.14 224.61 63.18 224.80
  Q 63.55 226.51 63.44 228.24
  Q 63.25 231.19 63.25 231.27
  Q 63.25 249.53 63.25 268.14
  C 63.25 268.70 63.84 269.08 64.37 268.86
  L 86.75 259.46
  Q 112.10 291.00 151.51 291.38
  Q 161.87 291.49 171.33 289.23
  Q 182.73 286.50 192.19 280.94
  Q 218.94 265.19 229.43 235.96
  Q 229.63 235.40 230.08 235.00
  Q 240.51 225.82 243.79 212.75
  Q 244.72 213.17 245.74 212.97
  Q 256.21 210.90 266.75 209.29
  Q 250.96 236.56 234.75 263.58
  Q 232.07 268.05 231.89 270.45
  Q 231.54 274.95 235.89 277.68
  C 236.16 277.85 236.48 277.94 236.82 277.94
  Q 328.97 278.04 421.12 278.00
  Q 424.56 278.00 426.59 276.78
  Q 432.89 273.01 428.21 265.30
  Q 408.19 232.36 388.46 199.25
  Q 389.47 198.82 392.50 198.75
  Q 413.88 198.26 436.42 198.78
  C 436.74 198.79 437.00 198.53 437.00 198.21
  L 436.94 91.80
  C 436.94 91.53 436.72 91.31 436.44 91.31
  L 64.19 91.25
  C 63.62 91.25 63.18 91.75 63.26 92.32
  Q 63.66 95.23 63.58 98.25
  Q 62.98 119.12 63.39 140.00
  Q 63.40 140.30 63.21 144.35
  Q 63.10 146.85 63.75 148.75
  Q 64.38 150.61 62.79 151.25
  L 62.07 146.49
  C 62.01 146.12 61.86 145.82 61.65 145.64
  Q 60.70 144.84 59.25 145.29
  L 59.31 88.32
  C 59.31 88.04 59.53 87.81 59.81 87.81
  L 440.73 87.75
  C 441.02 87.75 441.25 87.98 441.25 88.27
  L 441.25 305.31
  C 441.25 305.69 440.94 306.00 440.56 306.00
  L 59.81 306.00
  C 59.50 306.00 59.25 305.75 59.25 305.44
  L 59.25 212.43
  Q 59.25 212.32 59.02 211.63
  Q 58.87 211.20 59.71 211.25
  Z"></path>
<path fill="#4ca5b3" d="
  M 388.46 199.25
  Q 364.27 159.41 340.45 119.36
  Q 338.23 115.63 336.44 114.56
  Q 328.91 110.10 322.81 116.06
  Q 321.37 117.47 319.56 120.56
  Q 299.42 154.98 266.75 209.29
  Q 256.21 210.90 245.74 212.97
  Q 244.72 213.17 243.79 212.75
  Q 244.90 207.04 244.48 201.03
  Q 244.22 197.23 240.70 197.61
  L 233.99 198.33
  C 233.40 198.39 232.87 198.00 232.78 197.43
  Q 229.66 177.94 218.67 162.37
  Q 213.06 154.42 205.20 147.66
  Q 179.67 125.69 145.44 128.07
  Q 135.25 128.78 125.87 131.93
  Q 97.47 141.45 81.56 167.31
  Q 73.41 180.57 70.64 197.57
  C 70.59 197.86 70.35 198.07 70.06 198.08
  Q 67.09 198.14 63.25 197.50
  Q 60.18 196.99 59.46 200.00
  Q 58.90 190.10 59.50 180.21
  Q 62.16 180.73 62.25 178.00
  Q 62.57 168.65 70.94 165.23
  Q 71.57 164.98 73.64 164.69
  Q 76.39 164.30 75.17 161.75
  C 75.04 161.48 74.77 161.29 74.45 161.24
  Q 65.51 159.90 62.79 151.25
  Q 64.38 150.61 63.75 148.75
  Q 63.10 146.85 63.21 144.35
  Q 63.40 140.30 63.39 140.00
  Q 62.98 119.12 63.58 98.25
  Q 63.66 95.23 63.26 92.32
  C 63.18 91.75 63.62 91.25 64.19 91.25
  L 436.44 91.31
  C 436.72 91.31 436.94 91.53 436.94 91.80
  L 437.00 198.21
  C 437.00 198.53 436.74 198.79 436.42 198.78
  Q 413.88 198.26 392.50 198.75
  Q 389.47 198.82 388.46 199.25
  Z"></path>
<path fill="#ea0000" d="
  M 388.46 199.25
  Q 408.19 232.36 428.21 265.30
  Q 432.89 273.01 426.59 276.78
  Q 424.56 278.00 421.12 278.00
  Q 328.97 278.04 236.82 277.94
  C 236.48 277.94 236.16 277.85 235.89 277.68
  Q 231.54 274.95 231.89 270.45
  Q 232.07 268.05 234.75 263.58
  Q 250.96 236.56 266.75 209.29
  Q 299.42 154.98 319.56 120.56
  Q 321.37 117.47 322.81 116.06
  Q 328.91 110.10 336.44 114.56
  Q 338.23 115.63 340.45 119.36
  Q 364.27 159.41 388.46 199.25
  Z
  M 262.70 257.65
  Q 262.38 258.19 263.01 258.19
  L 399.32 257.75
  Q 399.84 257.75 399.58 257.30
  L 330.84 141.48
  C 330.68 141.22 330.31 141.22 330.16 141.48
  L 262.70 257.65
  Z"></path>
<path fill="#000000" d="
  M 243.79 212.75
  Q 240.51 225.82 230.08 235.00
  Q 229.63 235.40 229.43 235.96
  Q 218.94 265.19 192.19 280.94
  Q 182.73 286.50 171.33 289.23
  Q 161.87 291.49 151.51 291.38
  Q 112.10 291.00 86.75 259.46
  Q 78.61 248.76 74.22 236.15
  Q 73.96 235.40 73.37 234.88
  Q 67.13 229.32 63.79 223.25
  Q 60.71 217.60 59.71 211.25
  Q 58.42 205.64 59.46 200.00
  Q 60.18 196.99 63.25 197.50
  Q 67.09 198.14 70.06 198.08
  C 70.35 198.07 70.59 197.86 70.64 197.57
  Q 73.41 180.57 81.56 167.31
  Q 97.47 141.45 125.87 131.93
  Q 135.25 128.78 145.44 128.07
  Q 179.67 125.69 205.20 147.66
  Q 213.06 154.42 218.67 162.37
  Q 229.66 177.94 232.78 197.43
  C 232.87 198.00 233.40 198.39 233.99 198.33
  L 240.70 197.61
  Q 244.22 197.23 244.48 201.03
  Q 244.90 207.04 243.79 212.75
  Z
  M 204.81 151.94
  Q 184.24 132.85 156.24 131.27
  Q 146.13 130.70 136.37 132.70
  Q 115.87 136.89 100.20 150.57
  Q 92.51 157.28 86.98 165.49
  Q 77.24 179.91 74.20 197.96
  C 74.13 198.40 74.44 198.82 74.88 198.87
  Q 105.52 202.64 136.48 206.86
  Q 144.48 207.95 149.58 208.08
  Q 157.16 208.28 162.75 207.50
  Q 195.43 202.94 228.70 198.87
  C 229.16 198.82 229.48 198.39 229.41 197.93
  Q 225.19 170.85 204.81 151.94
  Z
  M 129.76 237.94
  Q 121.24 243.26 110.25 244.25
  Q 93.95 245.71 79.25 238.75
  Q 78.81 238.54 79.00 239.00
  Q 84.17 251.50 93.22 261.55
  Q 111.04 281.34 136.36 286.55
  Q 146.18 288.57 156.24 287.98
  Q 181.91 286.48 202.06 269.81
  Q 217.00 257.46 224.50 239.02
  Q 224.69 238.56 224.24 238.77
  Q 209.23 245.75 193.34 244.23
  Q 182.39 243.19 174.42 238.37
  Q 161.18 230.38 157.52 213.94
  C 157.40 213.39 156.91 213.00 156.34 213.00
  L 147.12 213.00
  C 146.68 213.00 146.29 213.30 146.20 213.73
  Q 144.48 221.27 140.30 227.61
  Q 136.09 233.98 129.76 237.94
  Z
  M 111.0738 216.8494
  C 111.52 216.10 111.28 215.13 110.5294 214.6823
  L 110.3235 214.5590
  C 109.57 214.11 108.60 214.35 108.1563 215.1034
  L 100.9462 227.1506
  C 100.50 227.90 100.74 228.87 101.4906 229.3177
  L 101.6965 229.4410
  C 102.45 229.89 103.42 229.65 103.8637 228.8966
  L 111.0738 216.8494
  Z
  M 217.1971 216.7567
  C 217.60 216.08 217.38 215.20 216.7011 214.7962
  L 216.2544 214.5299
  C 215.58 214.13 214.70 214.35 214.2939 215.0260
  L 207.0229 227.2233
  C 206.62 227.90 206.84 228.78 207.5189 229.1838
  L 207.9656 229.4501
  C 208.64 229.85 209.52 229.63 209.9261 228.9540
  L 217.1971 216.7567
  Z
  M 99.2976 217.2824
  C 99.70 216.61 99.48 215.74 98.8050 215.3356
  L 98.3412 215.0591
  C 97.67 214.66 96.80 214.88 96.3943 215.5517
  L 89.0824 227.8176
  C 88.68 228.49 88.90 229.36 89.5750 229.7644
  L 90.0388 230.0409
  C 90.71 230.44 91.58 230.22 91.9857 229.5483
  L 99.2976 217.2824
  Z
  M 205.3734 217.3083
  C 205.83 216.54 205.58 215.55 204.8153 215.0863
  L 204.7295 215.0349
  C 203.96 214.58 202.97 214.83 202.5075 215.5930
  L 195.2666 227.6917
  C 194.81 228.46 195.06 229.45 195.8247 229.9137
  L 195.9105 229.9651
  C 196.68 230.42 197.67 230.17 198.1325 229.4070
  L 205.3734 217.3083
  Z"></path>
<path fill="#fcb63a" d="
  M 204.81 151.94
  Q 225.19 170.85 229.41 197.93
  C 229.48 198.39 229.16 198.82 228.70 198.87
  Q 195.43 202.94 162.75 207.50
  Q 157.16 208.28 149.58 208.08
  Q 144.48 207.95 136.48 206.86
  Q 105.52 202.64 74.88 198.87
  C 74.44 198.82 74.13 198.40 74.20 197.96
  Q 77.24 179.91 86.98 165.49
  Q 92.51 157.28 100.20 150.57
  Q 115.87 136.89 136.37 132.70
  Q 146.13 130.70 156.24 131.27
  Q 184.24 132.85 204.81 151.94
  Z
  M 138.9776 197.4724
  C 139.23 196.72 138.83 195.91 138.0847 195.6579
  L 112.9039 187.0856
  C 112.16 186.83 111.34 187.23 111.0893 187.9785
  L 110.9024 188.5276
  C 110.65 189.28 111.05 190.09 111.7953 190.3421
  L 136.9761 198.9144
  C 137.72 199.17 138.54 198.77 138.7907 198.0215
  L 138.9776 197.4724
  Z
  M 192.5583 188.1433
  C 192.26 187.29 191.33 186.83 190.4755 187.1229
  L 165.6502 195.6225
  C 164.79 195.92 164.34 196.85 164.6299 197.7053
  L 164.6817 197.8567
  C 164.98 198.71 165.91 199.17 166.7645 198.8771
  L 191.5898 190.3775
  C 192.45 190.08 192.90 189.15 192.6101 188.2947
  L 192.5583 188.1433
  Z"></path>
<path fill="#ffffff" d="
  M 262.70 257.65
  L 330.16 141.48
  C 330.31 141.22 330.68 141.22 330.84 141.48
  L 399.58 257.30
  Q 399.84 257.75 399.32 257.75
  L 263.01 258.19
  Q 262.38 258.19 262.70 257.65
  Z
  M 322.60 168.37
  Q 321.12 170.38 321.25 173.50
  Q 322.27 198.32 324.01 216.84
  Q 324.43 221.24 325.27 222.89
  Q 327.00 226.24 331.08 226.36
  Q 333.11 226.41 334.74 225.40
  Q 336.49 224.32 337.50 222.58
  Q 338.44 220.95 338.68 217.22
  Q 339.70 201.08 340.47 184.91
  Q 341.00 173.70 340.81 172.60
  Q 339.38 164.13 328.01 165.31
  Q 324.60 165.66 322.60 168.37
  Z
  M 341.3533 240.6796
  C 340.80 235.68 336.17 232.09 331.0203 232.6550
  C 325.87 233.22 322.13 237.74 322.6867 242.7404
  C 323.24 247.74 327.87 251.33 333.0197 250.7650
  C 338.17 250.20 341.91 245.68 341.3533 240.6796
  Z"></path>
<path fill="#000000" d="
  M 59.25 145.29
  Q 60.70 144.84 61.65 145.64
  C 61.86 145.82 62.01 146.12 62.07 146.49
  L 62.79 151.25
  Q 65.51 159.90 74.45 161.24
  C 74.77 161.29 75.04 161.48 75.17 161.75
  Q 76.39 164.30 73.64 164.69
  Q 71.57 164.98 70.94 165.23
  Q 62.57 168.65 62.25 178.00
  Q 62.16 180.73 59.50 180.21
  Q 58.46 179.72 58.54 179.39
  Q 58.84 178.12 58.54 176.84
  Q 56.15 166.56 48.25 164.96
  L 46.13 164.28
  C 45.85 164.19 45.63 163.92 45.55 163.57
  Q 44.75 160.26 49.00 160.54
  Q 57.89 157.59 58.50 148.25
  Q 58.62 146.39 59.25 145.29
  Z
  M 66.95 162.41
  Q 62.78 159.35 61.00 155.80
  Q 60.48 154.78 59.95 155.80
  Q 57.76 159.97 53.95 162.28
  C 53.72 162.42 53.70 162.75 53.92 162.91
  Q 57.88 165.94 60.24 170.00
  C 60.36 170.20 60.64 170.19 60.76 169.99
  Q 63.10 165.93 66.95 163.02
  C 67.15 162.87 67.15 162.56 66.95 162.41
  Z"></path>
<path fill="#ffffff" d="
  M 66.95 162.41
  C 67.15 162.56 67.15 162.87 66.95 163.02
  Q 63.10 165.93 60.76 169.99
  C 60.64 170.19 60.36 170.20 60.24 170.00
  Q 57.88 165.94 53.92 162.91
  C 53.70 162.75 53.72 162.42 53.95 162.28
  Q 57.76 159.97 59.95 155.80
  Q 60.48 154.78 61.00 155.80
  Q 62.78 159.35 66.95 162.41
  Z"></path>
<path fill="#000000" d="
  M 322.60 168.37
  Q 324.60 165.66 328.01 165.31
  Q 339.38 164.13 340.81 172.60
  Q 341.00 173.70 340.47 184.91
  Q 339.70 201.08 338.68 217.22
  Q 338.44 220.95 337.50 222.58
  Q 336.49 224.32 334.74 225.40
  Q 333.11 226.41 331.08 226.36
  Q 327.00 226.24 325.27 222.89
  Q 324.43 221.24 324.01 216.84
  Q 322.27 198.32 321.25 173.50
  Q 321.12 170.38 322.60 168.37
  Z"></path>
<rect fill="#000000" x="-14.73" y="-1.72" transform="translate(124.94,193.00) rotate(18.8)" width="29.46" height="3.44" rx="1.43"></rect>
<rect fill="#000000" x="-14.76" y="-1.72" transform="translate(178.62,193.00) rotate(-18.9)" width="29.52" height="3.44" rx="1.64"></rect>
<path fill="#fcb63a" d="
  M 140.30 227.61
  Q 144.48 221.27 146.20 213.73
  C 146.29 213.30 146.68 213.00 147.12 213.00
  L 156.34 213.00
  C 156.91 213.00 157.40 213.39 157.52 213.94
  Q 161.18 230.38 174.42 238.37
  Q 182.39 243.19 193.34 244.23
  Q 209.23 245.75 224.24 238.77
  Q 224.69 238.56 224.50 239.02
  Q 217.00 257.46 202.06 269.81
  Q 181.91 286.48 156.24 287.98
  Q 146.18 288.57 136.36 286.55
  Q 111.04 281.34 93.22 261.55
  Q 84.17 251.50 79.00 239.00
  Q 78.81 238.54 79.25 238.75
  Q 93.95 245.71 110.25 244.25
  Q 121.24 243.26 129.76 237.94
  Q 136.09 233.98 140.30 227.61
  Z
  M 153.4968 227.0230
  C 153.50 226.10 152.75 225.35 151.8297 225.3501
  L 151.7097 225.3499
  C 150.79 225.35 150.04 226.09 150.0368 227.0170
  L 150.0232 234.8370
  C 150.02 235.76 150.77 236.51 151.6903 236.5099
  L 151.8103 236.5101
  C 152.73 236.51 153.48 235.77 153.4832 234.8430
  L 153.4968 227.0230
  Z
  M 153.82 250.06
  Q 152.32 249.69 150.80 249.40
  C 150.48 249.34 150.16 249.44 149.95 249.65
  Q 147.50 252.04 151.22 253.11
  Q 165.49 257.22 168.40 243.50
  C 168.47 243.16 168.43 242.83 168.28 242.55
  Q 167.03 240.22 165.69 241.85
  Q 165.18 242.46 164.87 243.94
  Q 163.51 250.50 156.85 250.51
  Q 155.72 250.52 153.82 250.06
  Z"></path>
<rect fill="#ffffff" x="-1.70" y="-8.60" transform="translate(106.01,222.00) rotate(30.9)" width="3.40" height="17.20" rx="1.58"></rect>
<rect fill="#ffffff" x="-1.69" y="-8.53" transform="translate(212.11,221.99) rotate(30.8)" width="3.38" height="17.06" rx="1.43"></rect>
<rect fill="#ffffff" x="-1.69" y="-8.56" transform="translate(94.19,222.55) rotate(30.8)" width="3.38" height="17.12" rx="1.42"></rect>
<rect fill="#ffffff" x="-1.67" y="-8.67" transform="translate(200.32,222.50) rotate(30.9)" width="3.34" height="17.34" rx="1.62"></rect>
<path fill="#4ca5b3" d="
  M 63.79 223.25
  Q 67.13 229.32 73.37 234.88
  Q 73.96 235.40 74.22 236.15
  Q 78.61 248.76 86.75 259.46
  L 64.37 268.86
  C 63.84 269.08 63.25 268.70 63.25 268.14
  Q 63.25 249.53 63.25 231.27
  Q 63.25 231.19 63.44 228.24
  Q 63.55 226.51 63.18 224.80
  C 63.14 224.61 63.29 224.37 63.55 224.22
  Q 63.93 224.00 63.79 223.25
  Z"></path>
<rect fill="#000000" x="-1.73" y="-5.58" transform="translate(151.76,230.93) rotate(0.1)" width="3.46" height="11.16" rx="1.67"></rect>
<ellipse fill="#000000" cx="0.00" cy="0.00" transform="translate(332.02,241.71) rotate(-6.3)" rx="9.39" ry="9.11"></ellipse>
<path fill="#000000" d="
  M 156.85 250.51
  Q 163.51 250.50 164.87 243.94
  Q 165.18 242.46 165.69 241.85
  Q 167.03 240.22 168.28 242.55
  C 168.43 242.83 168.47 243.16 168.40 243.50
  Q 165.49 257.22 151.22 253.11
  Q 147.50 252.04 149.95 249.65
  C 150.16 249.44 150.48 249.34 150.80 249.40
  Q 152.32 249.69 153.82 250.06
  Q 155.72 250.52 156.85 250.51
  Z"></path>
<path fill="#0e191f" d="
  M 192.00 332.29
  Q 191.38 334.40 190.75 335.00
  Q 189.71 335.99 191.25 336.04
  Q 185.50 338.25 184.00 338.25
  Q 151.00 338.25 118.00 338.28
  Q 113.39 338.29 109.50 335.96
  L 107.71 332.25
  Q 109.94 326.50 115.75 326.50
  Q 146.63 326.50 177.50 326.50
  Q 184.80 326.50 185.48 326.65
  Q 189.87 327.59 192.00 332.29
  Z"></path>
<path fill="#0e191f" d="
  M 392.54 332.25
  L 391.00 335.96
  Q 386.95 338.25 385.50 338.25
  Q 352.00 338.25 318.50 338.26
  Q 313.73 338.26 310.04 335.50
  Q 308.91 334.03 308.50 332.21
  Q 310.73 326.53 317.75 326.50
  Q 366.34 326.30 385.56 326.69
  Q 390.88 326.80 392.54 332.25
  Z"></path>
<path fill="#ffffff" d="
  M 192.00 332.29
  L 308.50 332.21
  Q 308.91 334.03 310.04 335.50
  Q 310.08 336.00 309.50 336.00
  Q 279.71 335.93 191.25 336.04
  Q 189.71 335.99 190.75 335.00
  Q 191.38 334.40 192.00 332.29
  Z"></path>
<path fill="#192c37" d="
  M 310.04 335.50
  Q 313.73 338.26 318.50 338.26
  Q 352.00 338.25 385.50 338.25
  Q 386.95 338.25 391.00 335.96
  Q 411.88 336.03 432.75 336.04
  Q 447.28 336.05 460.16 342.62
  Q 463.51 344.34 466.20 346.87
  Q 467.96 348.52 470.80 352.56
  Q 485.44 373.41 500.00 394.31
  Q 500.00 394.81 500.00 395.31
  Q 250.63 395.64 1.25 395.50
  Q 0.39 396.03 0.00 395.19
  Q 0.00 394.94 0.00 394.69
  Q 25.33 358.84 30.00 352.00
  Q 32.27 348.67 34.72 346.36
  Q 36.94 344.26 40.77 342.31
  Q 53.24 335.98 66.75 336.00
  Q 88.13 336.03 109.50 335.96
  Q 113.39 338.29 118.00 338.28
  Q 151.00 338.25 184.00 338.25
  Q 185.50 338.25 191.25 336.04
  Q 279.71 335.93 309.50 336.00
  Q 310.08 336.00 310.04 335.50
  Z
  M 51.69 352.89
  Q 59.68 354.09 67.75 353.28
  Q 70.80 352.97 69.67 348.78
  C 69.52 348.23 69.05 347.82 68.49 347.75
  Q 60.15 346.64 51.81 347.75
  C 51.47 347.80 51.16 347.94 50.94 348.15
  Q 48.79 350.25 50.83 352.45
  C 51.04 352.68 51.35 352.84 51.69 352.89
  Z
  M 101.7646 349.7598
  C 101.77 348.45 100.72 347.38 99.4112 347.3733
  L 84.1715 347.2669
  C 82.86 347.26 81.79 348.31 81.7851 349.6203
  L 81.7754 351.0002
  C 81.77 352.31 82.82 353.38 84.1288 353.3867
  L 99.3685 353.4931
  C 100.68 353.50 101.75 352.45 101.7549 351.1397
  L 101.7646 349.7598
  Z
  M 133.5208 349.9076
  C 133.52 348.48 132.37 347.32 130.9353 347.3131
  L 115.9353 347.2869
  C 114.50 347.28 113.34 348.44 113.3408 349.8724
  L 113.3392 350.7924
  C 113.34 352.22 114.49 353.38 115.9247 353.3869
  L 130.9247 353.4131
  C 132.36 353.42 133.52 352.26 133.5192 350.8276
  L 133.5208 349.9076
  Z
  M 165.2315 349.9352
  C 165.24 348.49 164.07 347.32 162.6306 347.3161
  L 147.6707 347.2639
  C 146.23 347.26 145.06 348.42 145.0516 349.8648
  L 145.0485 350.7648
  C 145.04 352.21 146.21 353.38 147.6494 353.3839
  L 162.6093 353.4361
  C 164.05 353.44 165.22 352.28 165.2284 350.8352
  L 165.2315 349.9352
  Z
  M 196.8933 349.7426
  C 196.90 348.43 195.84 347.36 194.5258 347.3501
  L 179.2060 347.2699
  C 177.89 347.26 176.82 348.32 176.8136 349.6374
  L 176.8067 350.9574
  C 176.80 352.27 177.86 353.34 179.1742 353.3499
  L 194.4940 353.4301
  C 195.81 353.44 196.88 352.38 196.8864 351.0626
  L 196.8933 349.7426
  Z
  M 228.68 349.98
  C 228.68 348.51 227.48 347.31 226.01 347.31
  L 211.15 347.31
  C 209.68 347.31 208.48 348.51 208.48 349.98
  L 208.48 350.76
  C 208.48 352.23 209.68 353.43 211.15 353.43
  L 226.01 353.43
  C 227.48 353.43 228.68 352.23 228.68 350.76
  L 228.68 349.98
  Z
  M 260.47 350.15
  C 260.47 348.58 259.20 347.31 257.63 347.31
  L 242.85 347.31
  C 241.28 347.31 240.01 348.58 240.01 350.15
  L 240.01 350.61
  C 240.01 352.18 241.28 353.45 242.85 353.45
  L 257.63 353.45
  C 259.20 353.45 260.47 352.18 260.47 350.61
  L 260.47 350.15
  Z
  M 273.19 352.88
  Q 280.98 353.95 290.07 353.13
  C 290.91 353.06 291.62 352.47 291.85 351.66
  Q 293.04 347.41 289.13 347.38
  Q 287.18 347.36 287.01 347.35
  Q 280.26 346.85 273.55 347.75
  C 273.21 347.80 272.91 347.93 272.70 348.14
  Q 270.71 350.11 272.38 352.42
  C 272.56 352.67 272.85 352.84 273.19 352.88
  Z
  M 323.6808 349.9276
  C 323.68 348.49 322.52 347.32 321.0753 347.3131
  L 306.0954 347.2869
  C 304.65 347.28 303.48 348.45 303.4808 349.8924
  L 303.4792 350.8124
  C 303.48 352.25 304.64 353.42 306.0847 353.4269
  L 321.0646 353.4531
  C 322.51 353.46 323.68 352.29 323.6792 350.8476
  L 323.6808 349.9276
  Z
  M 355.2893 349.9524
  C 355.29 348.48 354.09 347.28 352.6146 347.2870
  L 337.7347 347.3130
  C 336.26 347.32 335.07 348.51 335.0693 349.9876
  L 335.0707 350.7876
  C 335.07 352.26 336.27 353.46 337.7454 353.4530
  L 352.6253 353.4270
  C 354.10 353.42 355.29 352.23 355.2907 350.7524
  L 355.2893 349.9524
  Z
  M 368.43 352.89
  Q 376.83 354.25 385.67 352.94
  C 386.12 352.87 386.49 352.56 386.63 352.13
  Q 388.01 347.88 384.49 347.58
  Q 377.74 346.98 370.98 347.38
  Q 368.76 347.51 367.70 348.26
  Q 365.58 349.77 367.62 352.42
  C 367.81 352.67 368.10 352.84 368.43 352.89
  Z
  M 418.74 350.15
  C 418.74 348.58 417.47 347.31 415.90 347.31
  L 401.34 347.31
  C 399.77 347.31 398.50 348.58 398.50 350.15
  L 398.50 350.61
  C 398.50 352.18 399.77 353.45 401.34 353.45
  L 415.90 353.45
  C 417.47 353.45 418.74 352.18 418.74 350.61
  L 418.74 350.15
  Z
  M 431.67 352.89
  Q 438.69 354.00 445.77 353.35
  Q 445.85 353.34 447.73 353.30
  Q 450.95 353.22 450.52 349.66
  C 450.40 348.70 449.65 347.93 448.69 347.81
  Q 440.03 346.66 431.81 347.75
  C 431.47 347.79 431.18 347.95 430.99 348.19
  Q 429.31 350.28 430.87 352.42
  C 431.06 352.67 431.34 352.84 431.67 352.89
  Z
  M 57.41 359.12
  Q 49.69 357.87 41.49 358.66
  Q 35.93 359.19 38.33 364.00
  C 38.47 364.28 38.74 364.47 39.05 364.52
  Q 46.17 365.69 53.36 365.17
  Q 56.98 364.90 57.13 364.86
  Q 59.65 364.20 59.02 360.71
  C 58.88 359.89 58.23 359.26 57.41 359.12
  Z
  M 72.66 364.48
  Q 74.18 364.92 77.50 365.00
  Q 86.35 365.23 88.50 365.17
  Q 94.59 365.03 92.15 359.76
  C 92.03 359.48 91.76 359.28 91.44 359.23
  Q 83.56 357.93 75.61 358.63
  Q 73.23 358.84 72.19 359.57
  Q 70.12 361.03 71.91 363.89
  C 72.09 364.18 72.36 364.39 72.66 364.48
  Z
  M 106.78 364.65
  Q 113.74 365.74 121.28 365.09
  Q 121.39 365.08 123.23 365.05
  Q 126.95 364.99 126.25 360.55
  C 126.12 359.71 125.44 359.05 124.59 358.95
  Q 117.75 358.13 110.57 358.61
  Q 107.19 358.83 106.95 358.91
  Q 104.78 359.57 105.02 362.75
  C 105.09 363.72 105.82 364.50 106.78 364.65
  Z
  M 140.04 364.58
  Q 149.30 366.01 157.83 364.81
  C 158.58 364.70 159.18 364.16 159.37 363.43
  Q 160.59 358.81 157.26 358.62
  Q 150.12 358.22 142.98 358.64
  Q 140.53 358.78 139.64 359.35
  Q 137.90 360.47 138.57 363.23
  C 138.75 363.93 139.32 364.46 140.04 364.58
  Z
  M 173.37 364.55
  Q 181.22 365.71 189.07 365.14
  Q 191.87 364.94 192.37 364.60
  Q 193.74 363.69 193.42 360.69
  C 193.33 359.87 192.70 359.20 191.88 359.06
  Q 185.73 358.00 178.67 358.55
  Q 174.56 358.86 174.34 358.91
  Q 170.89 359.70 172.77 364.09
  C 172.88 364.34 173.10 364.51 173.37 364.55
  Z
  M 207.08 364.54
  Q 214.70 365.73 222.27 365.09
  Q 222.38 365.08 224.23 365.02
  Q 228.39 364.89 227.16 360.53
  C 226.89 359.56 226.04 358.87 225.04 358.79
  Q 216.87 358.16 209.24 358.65
  Q 204.76 358.94 206.13 363.71
  C 206.26 364.15 206.63 364.47 207.08 364.54
  Z
  M 258.84 359.04
  Q 252.48 358.17 243.50 358.75
  Q 237.80 359.12 240.09 363.99
  C 240.22 364.27 240.49 364.47 240.80 364.52
  Q 249.88 365.94 259.00 364.75
  Q 260.04 364.62 260.75 362.00
  Q 261.12 360.65 260.55 359.84
  Q 260.12 359.22 258.84 359.04
  Z
  M 274.68 364.63
  Q 282.06 365.62 289.48 365.14
  Q 292.43 364.94 292.99 364.71
  Q 294.91 363.89 294.47 360.79
  C 294.33 359.81 293.55 359.04 292.57 358.92
  Q 285.14 357.99 274.97 358.94
  C 274.24 359.01 273.61 359.47 273.31 360.14
  Q 272.42 362.18 273.88 364.17
  C 274.06 364.42 274.35 364.59 274.68 364.63
  Z
  M 308.44 364.64
  Q 317.44 365.93 326.45 364.75
  C 326.79 364.70 327.08 364.56 327.29 364.34
  Q 329.24 362.27 327.71 359.73
  C 327.55 359.46 327.27 359.27 326.95 359.21
  Q 323.52 358.51 316.50 358.50
  Q 310.87 358.49 307.79 359.41
  C 307.47 359.51 307.21 359.72 307.08 360.00
  Q 305.88 362.39 307.58 364.21
  C 307.79 364.44 308.09 364.59 308.44 364.64
  Z
  M 342.18 364.64
  Q 351.29 365.98 360.09 364.74
  C 360.79 364.64 361.35 364.11 361.49 363.43
  Q 362.46 358.96 359.25 358.72
  Q 352.09 358.19 344.93 358.67
  Q 342.52 358.83 341.35 359.57
  Q 338.79 361.18 341.35 364.18
  C 341.56 364.43 341.85 364.59 342.18 364.64
  Z
  M 375.42 364.41
  Q 382.11 365.72 388.90 365.16
  Q 389.02 365.15 392.12 365.06
  Q 397.17 364.92 395.01 359.89
  C 394.76 359.30 394.20 358.91 393.57 358.85
  Q 385.82 358.16 378.37 358.67
  Q 376.01 358.83 374.95 359.61
  Q 372.91 361.11 374.66 363.90
  C 374.83 364.16 375.10 364.35 375.42 364.41
  Z
  M 409.23 364.57
  Q 417.31 365.75 425.48 364.82
  Q 431.30 364.15 428.22 359.47
  C 428.05 359.21 427.77 359.04 427.45 359.00
  Q 420.30 358.09 413.12 358.60
  Q 409.88 358.82 409.39 358.98
  Q 406.95 359.76 407.71 363.15
  C 407.87 363.89 408.48 364.46 409.23 364.57
  Z
  M 442.93 364.63
  Q 450.76 365.64 458.62 365.08
  Q 460.95 364.92 462.01 364.02
  Q 463.91 362.39 461.99 359.71
  C 461.80 359.45 461.52 359.27 461.20 359.21
  Q 457.64 358.53 450.25 358.50
  Q 445.11 358.48 442.29 359.40
  C 441.97 359.50 441.72 359.72 441.60 360.01
  Q 440.57 362.38 442.10 364.19
  C 442.29 364.43 442.59 364.59 442.93 364.63
  Z
  M 25.57 377.08
  Q 34.73 378.54 45.08 377.18
  C 45.69 377.10 46.19 376.68 46.38 376.11
  Q 47.77 371.93 44.25 371.25
  Q 39.98 370.42 28.16 371.14
  Q 25.72 371.29 24.97 371.86
  Q 23.53 372.94 24.08 375.66
  C 24.23 376.40 24.83 376.97 25.57 377.08
  Z
  M 61.17 376.97
  Q 63.81 377.75 68.25 377.75
  Q 75.24 377.75 79.17 377.39
  Q 81.30 377.19 82.26 376.01
  Q 83.86 374.04 81.56 371.89
  C 81.33 371.68 81.03 371.54 80.69 371.50
  Q 71.93 370.40 63.17 371.31
  Q 61.07 371.53 60.20 372.54
  Q 58.80 374.17 60.38 376.41
  C 60.57 376.68 60.85 376.87 61.17 376.97
  Z
  M 98.58 377.27
  Q 107.27 378.50 116.00 377.27
  Q 119.30 376.81 118.38 373.07
  C 118.16 372.19 117.42 371.55 116.52 371.45
  Q 107.54 370.44 97.75 371.34
  Q 96.02 371.50 95.53 373.17
  Q 94.95 375.16 96.02 376.28
  Q 96.71 377.01 98.58 377.27
  Z
  M 134.07 377.23
  Q 136.87 377.79 141.00 377.75
  Q 148.94 377.68 152.44 377.25
  C 152.77 377.21 153.07 377.06 153.28 376.83
  Q 155.17 374.74 153.70 372.23
  C 153.55 371.96 153.27 371.78 152.95 371.72
  Q 142.98 370.00 133.00 371.66
  C 132.66 371.72 132.35 371.87 132.14 372.10
  Q 130.55 373.78 131.41 375.49
  Q 132.08 376.83 134.07 377.23
  Z
  M 169.99 377.31
  Q 172.03 377.74 174.75 377.75
  Q 182.72 377.79 187.48 377.35
  Q 188.78 377.23 189.32 376.63
  Q 190.05 375.81 189.85 374.48
  Q 189.78 373.99 189.87 373.51
  Q 190.21 371.71 188.75 371.50
  Q 181.33 370.41 170.80 371.19
  Q 168.98 371.33 168.04 372.08
  Q 166.38 373.39 167.17 375.25
  Q 167.86 376.87 169.99 377.31
  Z
  M 205.94 377.27
  Q 214.96 378.43 224.00 377.25
  C 224.82 377.14 225.51 376.56 225.75 375.76
  Q 227.01 371.56 222.75 371.25
  Q 214.03 370.60 205.17 371.32
  C 204.38 371.39 203.69 371.90 203.40 372.64
  Q 202.55 374.82 203.32 376.07
  Q 203.90 377.01 205.94 377.27
  Z
  M 260.07 371.62
  Q 251.27 370.47 240.94 371.39
  C 239.98 371.48 239.16 372.10 238.81 373.00
  Q 238.09 374.83 239.20 376.20
  Q 239.97 377.16 241.79 377.38
  Q 250.92 378.45 260.01 377.08
  C 260.35 377.03 260.64 376.87 260.84 376.63
  Q 262.82 374.32 260.90 372.06
  C 260.70 371.82 260.40 371.67 260.07 371.62
  Z
  M 276.16 376.96
  Q 278.36 377.57 282.75 377.75
  Q 289.27 378.01 295.01 377.34
  Q 297.26 377.07 297.47 374.82
  Q 297.78 371.54 294.94 371.32
  Q 287.01 370.69 279.08 371.13
  Q 276.68 371.27 275.56 371.94
  Q 273.11 373.40 275.37 376.41
  C 275.57 376.68 275.85 376.87 276.16 376.96
  Z
  M 311.92 376.91
  Q 321.79 378.86 331.69 377.03
  C 332.03 376.97 332.32 376.80 332.51 376.56
  Q 334.26 374.36 332.57 372.14
  C 332.38 371.89 332.09 371.72 331.76 371.67
  Q 321.88 370.04 311.99 371.67
  C 311.65 371.72 311.36 371.87 311.15 372.10
  Q 309.16 374.23 311.09 376.45
  C 311.30 376.68 311.59 376.85 311.92 376.91
  Z
  M 349.23 377.29
  Q 357.81 378.42 367.05 377.22
  Q 368.89 376.98 369.16 375.13
  Q 369.64 371.82 366.67 371.49
  Q 357.21 370.46 348.10 371.46
  C 347.52 371.52 347.03 371.90 346.82 372.45
  Q 345.93 374.76 346.57 376.02
  Q 347.07 377.00 349.23 377.29
  Z
  M 383.43 376.91
  Q 393.42 378.87 403.45 377.03
  C 403.78 376.97 404.06 376.79 404.25 376.54
  Q 405.87 374.36 404.61 372.69
  Q 403.74 371.53 401.44 371.30
  Q 393.42 370.50 385.41 371.31
  Q 383.33 371.53 382.45 372.55
  Q 381.06 374.19 382.63 376.41
  C 382.81 376.67 383.10 376.85 383.43 376.91
  Z
  M 419.17 376.91
  Q 429.07 378.83 439.00 377.09
  C 439.34 377.03 439.65 376.87 439.86 376.64
  Q 441.80 374.50 440.06 372.14
  C 439.88 371.89 439.59 371.72 439.25 371.67
  Q 430.12 370.26 420.95 371.35
  Q 418.93 371.59 418.14 372.71
  Q 416.96 374.39 418.39 376.42
  C 418.56 376.67 418.84 376.85 419.17 376.91
  Z
  M 456.29 377.32
  Q 458.14 377.76 460.50 377.75
  Q 467.80 377.73 471.58 377.59
  Q 474.18 377.50 475.30 376.86
  Q 477.70 375.50 475.94 372.25
  C 475.79 371.97 475.52 371.78 475.20 371.72
  Q 465.23 370.00 455.25 371.66
  C 454.91 371.72 454.61 371.87 454.40 372.09
  Q 452.83 373.76 453.67 375.47
  Q 454.34 376.85 456.29 377.32
  Z
  M 297.54 383.25
  Q 296.49 382.00 294.86 382.00
  Q 250.79 381.95 207.78 382.06
  Q 204.84 382.07 203.48 382.79
  Q 200.48 384.40 202.91 388.15
  C 203.08 388.41 203.36 388.60 203.68 388.66
  Q 208.03 389.46 216.25 389.50
  Q 254.68 389.68 293.11 389.27
  Q 295.81 389.24 297.22 388.42
  Q 300.34 386.59 297.54 383.25
  Z"></path>
<path fill="#2a4c5f" d="
  M 50.83 352.45
  Q 48.79 350.25 50.94 348.15
  C 51.16 347.94 51.47 347.80 51.81 347.75
  Q 60.15 346.64 68.49 347.75
  C 69.05 347.82 69.52 348.23 69.67 348.78
  Q 70.80 352.97 67.75 353.28
  Q 59.68 354.09 51.69 352.89
  C 51.35 352.84 51.04 352.68 50.83 352.45
  Z"></path>
<rect fill="#2a4c5f" x="-9.99" y="-3.06" transform="translate(91.77,350.38) rotate(0.4)" width="19.98" height="6.12" rx="2.37"></rect>
<rect fill="#2a4c5f" x="-10.09" y="-3.05" transform="translate(123.43,350.35) rotate(0.1)" width="20.18" height="6.10" rx="2.59"></rect>
<rect fill="#2a4c5f" x="-10.09" y="-3.06" transform="translate(155.14,350.35) rotate(0.2)" width="20.18" height="6.12" rx="2.61"></rect>
<rect fill="#2a4c5f" x="-10.04" y="-3.04" transform="translate(186.85,350.35) rotate(0.3)" width="20.08" height="6.08" rx="2.38"></rect>
<rect fill="#2a4c5f" x="208.48" y="347.31" width="20.20" height="6.12" rx="2.67"></rect>
<rect fill="#2a4c5f" x="240.01" y="347.31" width="20.46" height="6.14" rx="2.84"></rect>
<path fill="#2a4c5f" d="
  M 272.38 352.42
  Q 270.71 350.11 272.70 348.14
  C 272.91 347.93 273.21 347.80 273.55 347.75
  Q 280.26 346.85 287.01 347.35
  Q 287.18 347.36 289.13 347.38
  Q 293.04 347.41 291.85 351.66
  C 291.62 352.47 290.91 353.06 290.07 353.13
  Q 280.98 353.95 273.19 352.88
  C 272.85 352.84 272.56 352.67 272.38 352.42
  Z"></path>
<rect fill="#2a4c5f" x="-10.10" y="-3.07" transform="translate(313.58,350.37) rotate(0.1)" width="20.20" height="6.14" rx="2.61"></rect>
<rect fill="#2a4c5f" x="-10.11" y="-3.07" transform="translate(345.18,350.37) rotate(-0.1)" width="20.22" height="6.14" rx="2.67"></rect>
<path fill="#2a4c5f" d="
  M 367.62 352.42
  Q 365.58 349.77 367.70 348.26
  Q 368.76 347.51 370.98 347.38
  Q 377.74 346.98 384.49 347.58
  Q 388.01 347.88 386.63 352.13
  C 386.49 352.56 386.12 352.87 385.67 352.94
  Q 376.83 354.25 368.43 352.89
  C 368.10 352.84 367.81 352.67 367.62 352.42
  Z"></path>
<rect fill="#2a4c5f" x="398.50" y="347.31" width="20.24" height="6.14" rx="2.84"></rect>
<path fill="#2a4c5f" d="
  M 430.87 352.42
  Q 429.31 350.28 430.99 348.19
  C 431.18 347.95 431.47 347.79 431.81 347.75
  Q 440.03 346.66 448.69 347.81
  C 449.65 347.93 450.40 348.70 450.52 349.66
  Q 450.95 353.22 447.73 353.30
  Q 445.85 353.34 445.77 353.35
  Q 438.69 354.00 431.67 352.89
  C 431.34 352.84 431.06 352.67 430.87 352.42
  Z"></path>
<path fill="#2a4c5f" d="
  M 57.41 359.12
  C 58.23 359.26 58.88 359.89 59.02 360.71
  Q 59.65 364.20 57.13 364.86
  Q 56.98 364.90 53.36 365.17
  Q 46.17 365.69 39.05 364.52
  C 38.74 364.47 38.47 364.28 38.33 364.00
  Q 35.93 359.19 41.49 358.66
  Q 49.69 357.87 57.41 359.12
  Z"></path>
<path fill="#2a4c5f" d="
  M 71.91 363.89
  Q 70.12 361.03 72.19 359.57
  Q 73.23 358.84 75.61 358.63
  Q 83.56 357.93 91.44 359.23
  C 91.76 359.28 92.03 359.48 92.15 359.76
  Q 94.59 365.03 88.50 365.17
  Q 86.35 365.23 77.50 365.00
  Q 74.18 364.92 72.66 364.48
  C 72.36 364.39 72.09 364.18 71.91 363.89
  Z"></path>
<path fill="#2a4c5f" d="
  M 106.78 364.65
  C 105.82 364.50 105.09 363.72 105.02 362.75
  Q 104.78 359.57 106.95 358.91
  Q 107.19 358.83 110.57 358.61
  Q 117.75 358.13 124.59 358.95
  C 125.44 359.05 126.12 359.71 126.25 360.55
  Q 126.95 364.99 123.23 365.05
  Q 121.39 365.08 121.28 365.09
  Q 113.74 365.74 106.78 364.65
  Z"></path>
<path fill="#2a4c5f" d="
  M 140.04 364.58
  C 139.32 364.46 138.75 363.93 138.57 363.23
  Q 137.90 360.47 139.64 359.35
  Q 140.53 358.78 142.98 358.64
  Q 150.12 358.22 157.26 358.62
  Q 160.59 358.81 159.37 363.43
  C 159.18 364.16 158.58 364.70 157.83 364.81
  Q 149.30 366.01 140.04 364.58
  Z"></path>
<path fill="#2a4c5f" d="
  M 173.37 364.55
  C 173.10 364.51 172.88 364.34 172.77 364.09
  Q 170.89 359.70 174.34 358.91
  Q 174.56 358.86 178.67 358.55
  Q 185.73 358.00 191.88 359.06
  C 192.70 359.20 193.33 359.87 193.42 360.69
  Q 193.74 363.69 192.37 364.60
  Q 191.87 364.94 189.07 365.14
  Q 181.22 365.71 173.37 364.55
  Z"></path>
<path fill="#2a4c5f" d="
  M 207.08 364.54
  C 206.63 364.47 206.26 364.15 206.13 363.71
  Q 204.76 358.94 209.24 358.65
  Q 216.87 358.16 225.04 358.79
  C 226.04 358.87 226.89 359.56 227.16 360.53
  Q 228.39 364.89 224.23 365.02
  Q 222.38 365.08 222.27 365.09
  Q 214.70 365.73 207.08 364.54
  Z"></path>
<path fill="#2a4c5f" d="
  M 260.55 359.84
  Q 261.12 360.65 260.75 362.00
  Q 260.04 364.62 259.00 364.75
  Q 249.88 365.94 240.80 364.52
  C 240.49 364.47 240.22 364.27 240.09 363.99
  Q 237.80 359.12 243.50 358.75
  Q 252.48 358.17 258.84 359.04
  Q 260.12 359.22 260.55 359.84
  Z"></path>
<path fill="#2a4c5f" d="
  M 273.88 364.17
  Q 272.42 362.18 273.31 360.14
  C 273.61 359.47 274.24 359.01 274.97 358.94
  Q 285.14 357.99 292.57 358.92
  C 293.55 359.04 294.33 359.81 294.47 360.79
  Q 294.91 363.89 292.99 364.71
  Q 292.43 364.94 289.48 365.14
  Q 282.06 365.62 274.68 364.63
  C 274.35 364.59 274.06 364.42 273.88 364.17
  Z"></path>
<path fill="#2a4c5f" d="
  M 307.58 364.21
  Q 305.88 362.39 307.08 360.00
  C 307.21 359.72 307.47 359.51 307.79 359.41
  Q 310.87 358.49 316.50 358.50
  Q 323.52 358.51 326.95 359.21
  C 327.27 359.27 327.55 359.46 327.71 359.73
  Q 329.24 362.27 327.29 364.34
  C 327.08 364.56 326.79 364.70 326.45 364.75
  Q 317.44 365.93 308.44 364.64
  C 308.09 364.59 307.79 364.44 307.58 364.21
  Z"></path>
<path fill="#2a4c5f" d="
  M 341.35 364.18
  Q 338.79 361.18 341.35 359.57
  Q 342.52 358.83 344.93 358.67
  Q 352.09 358.19 359.25 358.72
  Q 362.46 358.96 361.49 363.43
  C 361.35 364.11 360.79 364.64 360.09 364.74
  Q 351.29 365.98 342.18 364.64
  C 341.85 364.59 341.56 364.43 341.35 364.18
  Z"></path>
<path fill="#2a4c5f" d="
  M 374.66 363.90
  Q 372.91 361.11 374.95 359.61
  Q 376.01 358.83 378.37 358.67
  Q 385.82 358.16 393.57 358.85
  C 394.20 358.91 394.76 359.30 395.01 359.89
  Q 397.17 364.92 392.12 365.06
  Q 389.02 365.15 388.90 365.16
  Q 382.11 365.72 375.42 364.41
  C 375.10 364.35 374.83 364.16 374.66 363.90
  Z"></path>
<path fill="#2a4c5f" d="
  M 409.23 364.57
  C 408.48 364.46 407.87 363.89 407.71 363.15
  Q 406.95 359.76 409.39 358.98
  Q 409.88 358.82 413.12 358.60
  Q 420.30 358.09 427.45 359.00
  C 427.77 359.04 428.05 359.21 428.22 359.47
  Q 431.30 364.15 425.48 364.82
  Q 417.31 365.75 409.23 364.57
  Z"></path>
<path fill="#2a4c5f" d="
  M 442.10 364.19
  Q 440.57 362.38 441.60 360.01
  C 441.72 359.72 441.97 359.50 442.29 359.40
  Q 445.11 358.48 450.25 358.50
  Q 457.64 358.53 461.20 359.21
  C 461.52 359.27 461.80 359.45 461.99 359.71
  Q 463.91 362.39 462.01 364.02
  Q 460.95 364.92 458.62 365.08
  Q 450.76 365.64 442.93 364.63
  C 442.59 364.59 442.29 364.43 442.10 364.19
  Z"></path>
<path fill="#2a4c5f" d="
  M 25.57 377.08
  C 24.83 376.97 24.23 376.40 24.08 375.66
  Q 23.53 372.94 24.97 371.86
  Q 25.72 371.29 28.16 371.14
  Q 39.98 370.42 44.25 371.25
  Q 47.77 371.93 46.38 376.11
  C 46.19 376.68 45.69 377.10 45.08 377.18
  Q 34.73 378.54 25.57 377.08
  Z"></path>
<path fill="#2a4c5f" d="
  M 60.38 376.41
  Q 58.80 374.17 60.20 372.54
  Q 61.07 371.53 63.17 371.31
  Q 71.93 370.40 80.69 371.50
  C 81.03 371.54 81.33 371.68 81.56 371.89
  Q 83.86 374.04 82.26 376.01
  Q 81.30 377.19 79.17 377.39
  Q 75.24 377.75 68.25 377.75
  Q 63.81 377.75 61.17 376.97
  C 60.85 376.87 60.57 376.68 60.38 376.41
  Z"></path>
<path fill="#2a4c5f" d="
  M 96.02 376.28
  Q 94.95 375.16 95.53 373.17
  Q 96.02 371.50 97.75 371.34
  Q 107.54 370.44 116.52 371.45
  C 117.42 371.55 118.16 372.19 118.38 373.07
  Q 119.30 376.81 116.00 377.27
  Q 107.27 378.50 98.58 377.27
  Q 96.71 377.01 96.02 376.28
  Z"></path>
<path fill="#2a4c5f" d="
  M 131.41 375.49
  Q 130.55 373.78 132.14 372.10
  C 132.35 371.87 132.66 371.72 133.00 371.66
  Q 142.98 370.00 152.95 371.72
  C 153.27 371.78 153.55 371.96 153.70 372.23
  Q 155.17 374.74 153.28 376.83
  C 153.07 377.06 152.77 377.21 152.44 377.25
  Q 148.94 377.68 141.00 377.75
  Q 136.87 377.79 134.07 377.23
  Q 132.08 376.83 131.41 375.49
  Z"></path>
<path fill="#2a4c5f" d="
  M 167.17 375.25
  Q 166.38 373.39 168.04 372.08
  Q 168.98 371.33 170.80 371.19
  Q 181.33 370.41 188.75 371.50
  Q 190.21 371.71 189.87 373.51
  Q 189.78 373.99 189.85 374.48
  Q 190.05 375.81 189.32 376.63
  Q 188.78 377.23 187.48 377.35
  Q 182.72 377.79 174.75 377.75
  Q 172.03 377.74 169.99 377.31
  Q 167.86 376.87 167.17 375.25
  Z"></path>
<path fill="#2a4c5f" d="
  M 203.32 376.07
  Q 202.55 374.82 203.40 372.64
  C 203.69 371.90 204.38 371.39 205.17 371.32
  Q 214.03 370.60 222.75 371.25
  Q 227.01 371.56 225.75 375.76
  C 225.51 376.56 224.82 377.14 224.00 377.25
  Q 214.96 378.43 205.94 377.27
  Q 203.90 377.01 203.32 376.07
  Z"></path>
<path fill="#2a4c5f" d="
  M 260.90 372.06
  Q 262.82 374.32 260.84 376.63
  C 260.64 376.87 260.35 377.03 260.01 377.08
  Q 250.92 378.45 241.79 377.38
  Q 239.97 377.16 239.20 376.20
  Q 238.09 374.83 238.81 373.00
  C 239.16 372.10 239.98 371.48 240.94 371.39
  Q 251.27 370.47 260.07 371.62
  C 260.40 371.67 260.70 371.82 260.90 372.06
  Z"></path>
<path fill="#2a4c5f" d="
  M 275.37 376.41
  Q 273.11 373.40 275.56 371.94
  Q 276.68 371.27 279.08 371.13
  Q 287.01 370.69 294.94 371.32
  Q 297.78 371.54 297.47 374.82
  Q 297.26 377.07 295.01 377.34
  Q 289.27 378.01 282.75 377.75
  Q 278.36 377.57 276.16 376.96
  C 275.85 376.87 275.57 376.68 275.37 376.41
  Z"></path>
<path fill="#2a4c5f" d="
  M 311.09 376.45
  Q 309.16 374.23 311.15 372.10
  C 311.36 371.87 311.65 371.72 311.99 371.67
  Q 321.88 370.04 331.76 371.67
  C 332.09 371.72 332.38 371.89 332.57 372.14
  Q 334.26 374.36 332.51 376.56
  C 332.32 376.80 332.03 376.97 331.69 377.03
  Q 321.79 378.86 311.92 376.91
  C 311.59 376.85 311.30 376.68 311.09 376.45
  Z"></path>
<path fill="#2a4c5f" d="
  M 346.57 376.02
  Q 345.93 374.76 346.82 372.45
  C 347.03 371.90 347.52 371.52 348.10 371.46
  Q 357.21 370.46 366.67 371.49
  Q 369.64 371.82 369.16 375.13
  Q 368.89 376.98 367.05 377.22
  Q 357.81 378.42 349.23 377.29
  Q 347.07 377.00 346.57 376.02
  Z"></path>
<path fill="#2a4c5f" d="
  M 382.63 376.41
  Q 381.06 374.19 382.45 372.55
  Q 383.33 371.53 385.41 371.31
  Q 393.42 370.50 401.44 371.30
  Q 403.74 371.53 404.61 372.69
  Q 405.87 374.36 404.25 376.54
  C 404.06 376.79 403.78 376.97 403.45 377.03
  Q 393.42 378.87 383.43 376.91
  C 383.10 376.85 382.81 376.67 382.63 376.41
  Z"></path>
<path fill="#2a4c5f" d="
  M 418.39 376.42
  Q 416.96 374.39 418.14 372.71
  Q 418.93 371.59 420.95 371.35
  Q 430.12 370.26 439.25 371.67
  C 439.59 371.72 439.88 371.89 440.06 372.14
  Q 441.80 374.50 439.86 376.64
  C 439.65 376.87 439.34 377.03 439.00 377.09
  Q 429.07 378.83 419.17 376.91
  C 418.84 376.85 418.56 376.67 418.39 376.42
  Z"></path>
<path fill="#2a4c5f" d="
  M 453.67 375.47
  Q 452.83 373.76 454.40 372.09
  C 454.61 371.87 454.91 371.72 455.25 371.66
  Q 465.23 370.00 475.20 371.72
  C 475.52 371.78 475.79 371.97 475.94 372.25
  Q 477.70 375.50 475.30 376.86
  Q 474.18 377.50 471.58 377.59
  Q 467.80 377.73 460.50 377.75
  Q 458.14 377.76 456.29 377.32
  Q 454.34 376.85 453.67 375.47
  Z"></path>
<path fill="#2a4c5f" d="
  M 297.54 383.25
  Q 300.34 386.59 297.22 388.42
  Q 295.81 389.24 293.11 389.27
  Q 254.68 389.68 216.25 389.50
  Q 208.03 389.46 203.68 388.66
  C 203.36 388.60 203.08 388.41 202.91 388.15
  Q 200.48 384.40 203.48 382.79
  Q 204.84 382.07 207.78 382.06
  Q 250.79 381.95 294.86 382.00
  Q 296.49 382.00 297.54 383.25
  Z"></path>
<path fill="#bbbaba" d="
  M 0.00 395.19
  Q 0.39 396.03 1.25 395.50
  Q 250.63 395.64 500.00 395.31
  Q 500.00 399.69 500.00 404.06
  Q 498.47 408.20 495.25 411.21
  Q 389.88 410.97 284.50 411.25
  Q 233.34 411.38 29.50 411.74
  Q 19.41 411.76 10.01 408.23
  Q 2.91 405.57 0.47 398.54
  Q 0.35 398.21 0.32 398.57
  Q 0.27 399.06 0.00 399.44
  Q 0.00 397.31 0.00 395.19
  Z"></path>
<path fill="#797777" d="
  M 495.25 411.21
  Q 489.87 415.66 484.00 416.25
  Q 479.49 416.70 467.75 416.69
  Q 245.00 416.50 22.25 416.33
  Q 17.29 416.33 15.06 415.94
  Q 3.41 413.89 0.00 402.69
  Q 0.00 401.06 0.00 399.44
  Q 0.27 399.06 0.32 398.57
  Q 0.35 398.21 0.47 398.54
  Q 2.91 405.57 10.01 408.23
  Q 19.41 411.76 29.50 411.74
  Q 233.34 411.38 284.50 411.25
  Q 389.88 410.97 495.25 411.21
  Z"></path>
<path fill="#ffffff" d="
  M 0.00 402.69
  Q 3.41 413.89 15.06 415.94
  Q 17.29 416.33 22.25 416.33
  Q 245.00 416.50 467.75 416.69
  Q 479.49 416.70 484.00 416.25
  Q 489.87 415.66 495.25 411.21
  Q 498.47 408.20 500.00 404.06
  Q 500.00 452.03 500.00 500.00
  Q 250.00 500.00 0.00 500.00
  Q 0.00 451.34 0.00 402.69
  Z"></path>
</svg>